Renner-200-Thin.ufo
<glyph name="exclam" format="1">
  <advance width="275"/>
  <unicode hex="0021"/>
  <outline>
    <contour>
      <point x="116" y="700" type="line"/>
      <point x="160" y="700" type="line"/>
      <point x="151" y="200" type="line"/>
      <point x="125" y="200" type="line"/>
    </contour>
    <contour>
      <point x="111" y="15" type="curve" smooth="yes"/>
      <point x="111" y="30"/>
      <point x="124" y="42"/>
      <point x="138" y="42" type="curve" smooth="yes"/>
      <point x="152" y="42"/>
      <point x="165" y="30"/>
      <point x="165" y="15" type="curve" smooth="yes"/>
      <point x="165" y="0"/>
      <point x="152" y="-12"/>
      <point x="138" y="-12" type="curve" smooth="yes"/>
      <point x="124" y="-12"/>
      <point x="111" y="0"/>
    </contour>
  </outline>
</glyph>
<glyph name="quotedbl" format="1">
  <advance width="425"/>
  <unicode hex="0022"/>
  <outline>
    <contour>
      <point x="136" y="700" type="line"/>
      <point x="179" y="700" type="line"/>
      <point x="111" y="413" type="line"/>
      <point x="86" y="413" type="line"/>
    </contour>
    <contour>
      <point x="316" y="700" type="line"/>
      <point x="359" y="700" type="line"/>
      <point x="291" y="413" type="line"/>
      <point x="266" y="413" type="line"/>
    </contour>
  </outline>
</glyph>
<glyph name="ampersand" format="1">
  <advance width="675"/>
  <unicode hex="0026"/>
  <outline>
    <contour>
      <point x="40" y="177" type="curve"/>
      <point x="77" y="178" type="line"/>
      <point x="77" y="78"/>
      <point x="155" y="23"/>
      <point x="254" y="23" type="curve" smooth="yes"/>
      <point x="409" y="23"/>
      <point x="502" y="179"/>
      <point x="602" y="316" type="curve"/>
      <point x="630" y="299" type="line"/>
      <point x="526" y="159"/>
      <point x="431" y="-10"/>
      <point x="252" y="-10" type="curve" smooth="yes"/>
      <point x="137" y="-10"/>
      <point x="40" y="58"/>
    </contour>
    <contour>
      <point x="117" y="569" type="line"/>
      <point x="117" y="650"/>
      <point x="175" y="711"/>
      <point x="275" y="711" type="curve" smooth="yes"/>
      <point x="374" y="711"/>
      <point x="424" y="638"/>
      <point x="424" y="567" type="curve"/>
      <point x="388" y="567" type="line"/>
      <point x="388" y="621"/>
      <point x="352" y="679"/>
      <point x="275" y="679" type="curve" smooth="yes"/>
      <point x="194" y="679"/>
      <point x="153" y="630"/>
      <point x="153" y="569" type="curve"/>
    </contour>
    <contour>
      <point x="197" y="411" type="line" smooth="yes"/>
      <point x="164" y="449"/>
      <point x="117" y="495"/>
      <point x="117" y="569" type="curve"/>
      <point x="153" y="569" type="line"/>
      <point x="153" y="507"/>
      <point x="190" y="469"/>
      <point x="224" y="431" type="curve" smooth="yes"/>
      <point x="601" y="0" type="line"/>
      <point x="559" y="0" type="line"/>
    </contour>
    <contour>
      <point x="424" y="567" type="line"/>
      <point x="424" y="500"/>
      <point x="371" y="445"/>
      <point x="278" y="389" type="curve" smooth="yes"/>
      <point x="205" y="345"/>
      <point x="77" y="304"/>
      <point x="77" y="178" type="curve"/>
      <point x="40" y="177" type="line"/>
      <point x="40" y="324"/>
      <point x="186" y="372"/>
      <point x="254" y="411" type="curve" smooth="yes"/>
      <point x="338" y="460"/>
      <point x="388" y="511"/>
      <point x="388" y="567" type="curve"/>
    </contour>
  </outline>
</glyph>
<glyph name="quotesingle" format="1">
  <advance width="245"/>
  <unicode hex="0027"/>
  <outline>
    <contour>
      <point x="136" y="700" type="line"/>
      <point x="179" y="700" type="line"/>
      <point x="111" y="413" type="line"/>
      <point x="86" y="413" type="line"/>
    </contour>
  </outline>
</glyph>
<glyph name="plus" format="1">
  <advance width="573"/>
  <unicode hex="002B"/>
  <outline>
    <contour>
      <point x="65" y="237" type="line"/>
      <point x="65" y="273" type="line"/>
      <point x="502" y="273" type="line"/>
      <point x="502" y="237" type="line"/>
    </contour>
    <contour>
      <point x="265" y="487" type="line"/>
      <point x="302" y="487" type="line"/>
      <point x="302" y="23" type="line"/>
      <point x="265" y="23" type="line"/>
    </contour>
  </outline>
</glyph>
<glyph name="comma" format="1">
  <advance width="287"/>
  <unicode hex="002C"/>
  <outline>
    <contour>
      <point x="165" y="100" type="line"/>
      <point x="201" y="86" type="line"/>
      <point x="91" y="-164" type="line"/>
      <point x="66" y="-155" type="line"/>
    </contour>
  </outline>
</glyph>
<glyph name="three" format="1">
  <advance width="549"/>
  <unicode hex="0033"/>
  <outline>
    <contour>
      <point x="250" y="356" type="curve"/>
      <point x="250" y="381" type="line"/>
      <point x="340" y="381"/>
      <point x="434" y="439"/>
      <point x="434" y="529" type="curve" smooth="yes"/>
      <point x="434" y="606"/>
      <point x="381" y="676"/>
      <point x="284" y="676" type="curve" smooth="yes"/>
      <point x="191" y="676"/>
      <point x="129" y="613"/>
      <point x="129" y="526" type="curve"/>
      <point x="93" y="526" type="line"/>
      <point x="93" y="635"/>
      <point x="169" y="710"/>
      <point x="284" y="710" type="curve" smooth="yes"/>
      <point x="404" y="710"/>
      <point x="471" y="623"/>
      <point x="471" y="530" type="curve" smooth="yes"/>
      <point x="471" y="425"/>
      <point x="366" y="356"/>
    </contour>
    <contour>
      <point x="280" y="-10" type="curve" smooth="yes"/>
      <point x="145" y="-10"/>
      <point x="63" y="76"/>
      <point x="63" y="185" type="curve"/>
      <point x="101" y="185" type="line"/>
      <point x="101" y="93"/>
      <point x="168" y="25"/>
      <point x="280" y="25" type="curve" smooth="yes"/>
      <point x="386" y="25"/>
      <point x="454" y="90"/>
      <point x="454" y="182" type="curve" smooth="yes"/>
      <point x="454" y="293"/>
      <point x="340" y="347"/>
      <point x="250" y="347" type="curve"/>
      <point x="250" y="372" type="line"/>
      <point x="366" y="372"/>
      <point x="491" y="312"/>
      <point x="491" y="179" type="curve" smooth="yes"/>
      <point x="491" y="66"/>
      <point x="405" y="-10"/>
    </contour>
  </outline>
</glyph>
<glyph name="five" format="1">
  <advance width="559"/>
  <unicode hex="0035"/>
  <outline>
    <contour>
      <point x="502" y="230" type="curve" smooth="yes"/>
      <point x="502" y="71"/>
      <point x="398" y="-10"/>
      <point x="269" y="-10" type="curve" smooth="yes"/>
      <point x="153" y="-10"/>
      <point x="86" y="51"/>
      <point x="46" y="137" type="curve"/>
      <point x="78" y="158" type="line"/>
      <point x="112" y="80"/>
      <point x="174" y="25"/>
      <point x="269" y="25" type="curve" smooth="yes"/>
      <point x="382" y="25"/>
      <point x="463" y="99"/>
      <point x="463" y="230" type="curve" smooth="yes"/>
      <point x="463" y="342"/>
      <point x="386" y="419"/>
      <point x="286" y="419" type="curve" smooth="yes"/>
      <point x="206" y="419"/>
      <point x="148" y="390"/>
      <point x="90" y="327" type="curve"/>
      <point x="120" y="371" type="line"/>
      <point x="156" y="418"/>
      <point x="221" y="453"/>
      <point x="299" y="453" type="curve" smooth="yes"/>
      <point x="413" y="453"/>
      <point x="502" y="363"/>
    </contour>
    <contour>
      <point x="210" y="667" type="line"/>
      <point x="140" y="380" type="line"/>
      <point x="90" y="327" type="line"/>
      <point x="182" y="700" type="line"/>
      <point x="512" y="700" type="line"/>
      <point x="512" y="667" type="line"/>
    </contour>
  </outline>
</glyph>
<glyph name="six" format="1">
  <advance width="550"/>
  <unicode hex="0036"/>
  <outline>
    <contour>
      <point x="86" y="224" type="curve" smooth="yes"/>
      <point x="86" y="109"/>
      <point x="163" y="24"/>
      <point x="275" y="24" type="curve" smooth="yes"/>
      <point x="387" y="24"/>
      <point x="465" y="109"/>
      <point x="465" y="224" type="curve" smooth="yes"/>
      <point x="465" y="333"/>
      <point x="382" y="416"/>
      <point x="282" y="416" type="curve" smooth="yes"/>
      <point x="160" y="416"/>
      <point x="86" y="326"/>
    </contour>
    <contour>
      <point x="330" y="700" type="line"/>
      <point x="376" y="700" type="line"/>
      <point x="143" y="375" type="line"/>
      <point x="140" y="377" type="line"/>
      <point x="177" y="422"/>
      <point x="229" y="444"/>
      <point x="293" y="444" type="curve" smooth="yes"/>
      <point x="407" y="444"/>
      <point x="500" y="347"/>
      <point x="500" y="224" type="curve" smooth="yes"/>
      <point x="500" y="86"/>
      <point x="410" y="-10"/>
      <point x="275" y="-10" type="curve" smooth="yes"/>
      <point x="140" y="-10"/>
      <point x="50" y="86"/>
      <point x="50" y="224" type="curve" smooth="yes"/>
      <point x="50" y="281"/>
      <point x="75" y="341"/>
      <point x="102" y="378" type="curve" smooth="yes"/>
    </contour>
  </outline>
</glyph>
<glyph name="equal" format="1">
  <advance width="615"/>
  <unicode hex="003D"/>
  <outline>
    <contour>
      <point x="65" y="169" type="line"/>
      <point x="65" y="202" type="line"/>
      <point x="550" y="202" type="line"/>
      <point x="550" y="169" type="line"/>
    </contour>
    <contour>
      <point x="65" y="303" type="line"/>
      <point x="65" y="336" type="line"/>
      <point x="550" y="336" type="line"/>
      <point x="550" y="303" type="line"/>
    </contour>
  </outline>
</glyph>
<glyph name="greater" format="1">
  <advance width="640"/>
  <unicode hex="003E"/>
  <outline>
    <contour>
      <point x="517" y="256" type="line"/>
      <point x="65" y="446" type="line"/>
      <point x="65" y="481" type="line"/>
      <point x="575" y="268" type="line"/>
      <point x="575" y="248" type="line"/>
      <point x="65" y="34" type="line"/>
      <point x="65" y="69" type="line"/>
    </contour>
  </outline>
</glyph>
<glyph name="question" format="1">
  <advance width="547"/>
  <unicode hex="003F"/>
  <outline>
    <contour>
      <point x="207" y="15" type="curve" smooth="yes"/>
      <point x="207" y="30"/>
      <point x="220" y="42"/>
      <point x="234" y="42" type="curve" smooth="yes"/>
      <point x="248" y="42"/>
      <point x="261" y="30"/>
      <point x="261" y="15" type="curve" smooth="yes"/>
      <point x="261" y="0"/>
      <point x="248" y="-12"/>
      <point x="234" y="-12" type="curve" smooth="yes"/>
      <point x="220" y="-12"/>
      <point x="207" y="0"/>
    </contour>
    <contour>
      <point x="214" y="345" type="line"/>
      <point x="253" y="345" type="line"/>
      <point x="251" y="170" type="line"/>
      <point x="224" y="170" type="line"/>
    </contour>
    <contour>
      <point x="439" y="513" type="curve" smooth="yes"/>
      <point x="439" y="609"/>
      <point x="375" y="677"/>
      <point x="266" y="677" type="curve" smooth="yes"/>
      <point x="183" y="677"/>
      <point x="132" y="636"/>
      <point x="93" y="574" type="curve"/>
      <point x="63" y="593" type="line"/>
      <point x="109" y="663"/>
      <point x="163" y="710"/>
      <point x="269" y="710" type="curve" smooth="yes"/>
      <point x="394" y="710"/>
      <point x="475" y="626"/>
      <point x="475" y="513" type="curve" smooth="yes"/>
      <point x="475" y="407"/>
      <point x="371" y="320"/>
      <point x="246" y="320" type="curve"/>
      <point x="223" y="345" type="line"/>
      <point x="349" y="345"/>
      <point x="439" y="424"/>
    </contour>
  </outline>
</glyph>
<glyph name="at" format="1">
  <advance width="770"/>
  <unicode hex="0040"/>
  <outline>
    <contour>
      <point x="234" y="320" type="curve" smooth="yes"/>
      <point x="234" y="245"/>
      <point x="277" y="194"/>
      <point x="342" y="194" type="curve" smooth="yes"/>
      <point x="414" y="194"/>
      <point x="481" y="264"/>
      <point x="481" y="370" type="curve" smooth="yes"/>
      <point x="481" y="439"/>
      <point x="441" y="497"/>
      <point x="378" y="497" type="curve" smooth="yes"/>
      <point x="307" y="497"/>
      <point x="234" y="435"/>
    </contour>
    <contour>
      <point x="200" y="319" type="curve" smooth="yes"/>
      <point x="200" y="458"/>
      <point x="293" y="529"/>
      <point x="378" y="529" type="curve" smooth="yes"/>
      <point x="457" y="529"/>
      <point x="504" y="453"/>
      <point x="504" y="368" type="curve" smooth="yes"/>
      <point x="504" y="248"/>
      <point x="425" y="162"/>
      <point x="336" y="162" type="curve" smooth="yes"/>
      <point x="262" y="162"/>
      <point x="200" y="220"/>
    </contour>
    <contour>
      <point x="35" y="320" type="curve" smooth="yes"/>
      <point x="35" y="539"/>
      <point x="191" y="709"/>
      <point x="415" y="709" type="curve" smooth="yes"/>
      <point x="623" y="709"/>
      <point x="735" y="549"/>
      <point x="735" y="390" type="curve" smooth="yes"/>
      <point x="735" y="224"/>
      <point x="631" y="151"/>
      <point x="556" y="151" type="curve" smooth="yes"/>
      <point x="495" y="151"/>
      <point x="463" y="204"/>
      <point x="476" y="283" type="curve"/>
      <point x="472" y="283" type="line"/>
      <point x="511" y="520" type="line"/>
      <point x="546" y="520" type="line"/>
      <point x="505" y="289" type="line" smooth="yes"/>
      <point x="504" y="282"/>
      <point x="503" y="265"/>
      <point x="503" y="257" type="curve" smooth="yes"/>
      <point x="503" y="227"/>
      <point x="511" y="182"/>
      <point x="560" y="182" type="curve" smooth="yes"/>
      <point x="617" y="182"/>
      <point x="703" y="251"/>
      <point x="703" y="390" type="curve" smooth="yes"/>
      <point x="703" y="536"/>
      <point x="602" y="678"/>
      <point x="415" y="678" type="curve" smooth="yes"/>
      <point x="207" y="678"/>
      <point x="67" y="524"/>
      <point x="67" y="320" type="curve" smooth="yes"/>
      <point x="67" y="138"/>
      <point x="187" y="22"/>
      <point x="369" y="22" type="curve" smooth="yes"/>
      <point x="470" y="22"/>
      <point x="527" y="47"/>
      <point x="586" y="81" type="curve"/>
      <point x="602" y="53" type="line"/>
      <point x="542" y="22"/>
      <point x="489" y="-9"/>
      <point x="369" y="-9" type="curve" smooth="yes"/>
      <point x="161" y="-9"/>
      <point x="35" y="121"/>
    </contour>
  </outline>
</glyph>
<glyph name="B" format="1">
  <advance width="517"/>
  <unicode hex="0042"/>
  <outline>
    <contour>
      <point x="108" y="391" type="line"/>
      <point x="238" y="391" type="line" smooth="yes"/>
      <point x="341" y="391"/>
      <point x="461" y="331"/>
      <point x="461" y="202" type="curve" smooth="yes"/>
      <point x="461" y="63"/>
      <point x="367" y="0"/>
      <point x="232" y="0" type="curve" smooth="yes"/>
      <point x="108" y="0" type="line"/>
      <point x="108" y="34" type="line"/>
      <point x="232" y="34" type="line" smooth="yes"/>
      <point x="348" y="34"/>
      <point x="423" y="89"/>
      <point x="423" y="204" type="curve" smooth="yes"/>
      <point x="423" y="309"/>
      <point x="328" y="369"/>
      <point x="232" y="369" type="curve" smooth="yes"/>
      <point x="108" y="369" type="line"/>
    </contour>
    <contour>
      <point x="108" y="380" type="line"/>
      <point x="108" y="402" type="line"/>
      <point x="222" y="402" type="line" smooth="yes"/>
      <point x="311" y="402"/>
      <point x="386" y="441"/>
      <point x="386" y="533" type="curve" smooth="yes"/>
      <point x="386" y="617"/>
      <point x="324" y="666"/>
      <point x="222" y="666" type="curve" smooth="yes"/>
      <point x="108" y="666" type="line"/>
      <point x="108" y="700" type="line"/>
      <point x="222" y="700" type="line" smooth="yes"/>
      <point x="347" y="700"/>
      <point x="423" y="641"/>
      <point x="423" y="535" type="curve" smooth="yes"/>
      <point x="423" y="430"/>
      <point x="340" y="380"/>
      <point x="228" y="380" type="curve" smooth="yes"/>
    </contour>
    <contour>
      <point x="86" y="700" type="line"/>
      <point x="123" y="700" type="line"/>
      <point x="123" y="0" type="line"/>
      <point x="86" y="0" type="line"/>
    </contour>
  </outline>
</glyph>
<glyph name="I" format="1">
  <advance width="203"/>
  <unicode hex="0049"/>
  <outline>
    <contour>
      <point x="83" y="700" type="line"/>
      <point x="120" y="700" type="line"/>
      <point x="120" y="0" type="line"/>
      <point x="83" y="0" type="line"/>
    </contour>
  </outline>
</glyph>
<glyph name="K" format="1">
  <advance width="493"/>
  <unicode hex="004B"/>
  <outline>
    <contour>
      <point x="83" y="700" type="line"/>
      <point x="121" y="700" type="line"/>
      <point x="121" y="0" type="line"/>
      <point x="83" y="0" type="line"/>
    </contour>
    <contour>
      <point x="419" y="700" type="line"/>
      <point x="468" y="700" type="line"/>
      <point x="157" y="372" type="line"/>
      <point x="483" y="0" type="line"/>
      <point x="434" y="0" type="line"/>
      <point x="110" y="371" type="line"/>
    </contour>
  </outline>
</glyph>
<glyph name="T" format="1">
  <advance width="443"/>
  <unicode hex="0054"/>
  <outline>
    <contour>
      <point x="16" y="664" type="line"/>
      <point x="16" y="700" type="line"/>
      <point x="427" y="700" type="line"/>
      <point x="427" y="664" type="line"/>
      <point x="240" y="664" type="line"/>
      <point x="240" y="0" type="line"/>
      <point x="203" y="0" type="line"/>
      <point x="203" y="664" type="line"/>
    </contour>
  </outline>
</glyph>
<glyph name="W" format="1">
  <advance width="964"/>
  <unicode hex="0057"/>
  <outline>
    <contour>
      <point x="282" y="39" type="line"/>
      <point x="266" y="-22" type="line"/>
      <point x="16" y="700" type="line"/>
      <point x="57" y="700" type="line"/>
    </contour>
    <contour>
      <point x="699" y="-22" type="line"/>
      <point x="683" y="39" type="line"/>
      <point x="907" y="700" type="line"/>
      <point x="948" y="700" type="line"/>
    </contour>
    <contour>
      <point x="266" y="-22" type="line"/>
      <point x="252" y="42" type="line"/>
      <point x="482" y="722" type="line"/>
      <point x="713" y="42" type="line"/>
      <point x="699" y="-22" type="line"/>
      <point x="482" y="616" type="line"/>
    </contour>
  </outline>
</glyph>
<glyph name="Z" format="1">
  <advance width="538"/>
  <unicode hex="005A"/>
  <outline>
    <contour>
      <point x="38" y="664" type="line"/>
      <point x="38" y="700" type="line"/>
      <point x="522" y="700" type="line"/>
      <point x="82" y="36" type="line"/>
      <point x="508" y="36" type="line"/>
      <point x="508" y="0" type="line"/>
      <point x="18" y="0" type="line"/>
      <point x="458" y="664" type="line"/>
    </contour>
  </outline>
</glyph>
<glyph name="underscore" format="1">
  <advance width="500"/>
  <unicode hex="005F"/>
  <outline>
    <contour>
      <point x="0" y="-117" type="line"/>
      <point x="0" y="-91" type="line"/>
      <point x="500" y="-91" type="line"/>
      <point x="500" y="-117" type="line"/>
    </contour>
  </outline>
</glyph>
<glyph name="i" format="1">
  <advance width="215"/>
  <unicode hex="0069"/>
  <outline>
    <contour>
      <point x="81" y="679" type="curve" smooth="yes"/>
      <point x="81" y="693"/>
      <point x="93" y="705"/>
      <point x="108" y="705" type="curve" smooth="yes"/>
      <point x="123" y="705"/>
      <point x="134" y="693"/>
      <point x="134" y="679" type="curve" smooth="yes"/>
      <point x="134" y="665"/>
      <point x="123" y="653"/>
      <point x="108" y="653" type="curve" smooth="yes"/>
      <point x="93" y="653"/>
      <point x="81" y="665"/>
    </contour>
    <contour>
      <point x="90" y="460" type="line"/>
      <point x="125" y="460" type="line"/>
      <point x="125" y="0" type="line"/>
      <point x="90" y="0" type="line"/>
    </contour>
  </outline>
</glyph>
<glyph name="j" format="1">
  <advance width="205"/>
  <unicode hex="006A"/>
  <outline>
    <contour>
      <point x="71" y="679" type="curve" smooth="yes"/>
      <point x="71" y="693"/>
      <point x="83" y="705"/>
      <point x="98" y="705" type="curve" smooth="yes"/>
      <point x="113" y="705"/>
      <point x="124" y="693"/>
      <point x="124" y="679" type="curve" smooth="yes"/>
      <point x="124" y="665"/>
      <point x="113" y="653"/>
      <point x="98" y="653" type="curve" smooth="yes"/>
      <point x="83" y="653"/>
      <point x="71" y="665"/>
    </contour>
    <contour>
      <point x="-68" y="-146" type="line"/>
      <point x="-53" y="-167"/>
      <point x="-29" y="-185"/>
      <point x="0" y="-185" type="curve" smooth="yes"/>
      <point x="62" y="-185"/>
      <point x="80" y="-131"/>
      <point x="80" y="-71" type="curve" smooth="yes"/>
      <point x="80" y="460" type="line"/>
      <point x="115" y="460" type="line"/>
      <point x="115" y="-74" type="line" smooth="yes"/>
      <point x="115" y="-157"/>
      <point x="82" y="-220"/>
      <point x="-2" y="-220" type="curve" smooth="yes"/>
      <point x="-45" y="-220"/>
      <point x="-73" y="-195"/>
      <point x="-88" y="-175" type="curve"/>
    </contour>
  </outline>
</glyph>
<glyph name="v" format="1">
  <advance width="427"/>
  <unicode hex="0076"/>
  <outline>
    <contour>
      <point x="6" y="460" type="line"/>
      <point x="47" y="460" type="line"/>
      <point x="214" y="55" type="line"/>
      <point x="381" y="460" type="line"/>
      <point x="421" y="460" type="line"/>
      <point x="214" y="-22" type="line"/>
    </contour>
  </outline>
</glyph>
<glyph name="w" format="1">
  <advance width="641"/>
  <unicode hex="0077"/>
  <outline>
    <contour>
      <point x="591" y="460" type="line"/>
      <point x="630" y="460" type="line"/>
      <point x="464" y="-22" type="line"/>
      <point x="453" y="46" type="line"/>
    </contour>
    <contour>
      <point x="305" y="417" type="line"/>
      <point x="316" y="482" type="line"/>
      <point x="471" y="46" type="line"/>
      <point x="464" y="-22" type="line"/>
    </contour>
    <contour>
      <point x="316" y="482" type="line"/>
      <point x="327" y="417" type="line"/>
      <point x="178" y="-22" type="line"/>
      <point x="170" y="46" type="line"/>
    </contour>
    <contour>
      <point x="11" y="460" type="line"/>
      <point x="50" y="460" type="line"/>
      <point x="188" y="46" type="line"/>
      <point x="178" y="-22" type="line"/>
    </contour>
  </outline>
</glyph>
<glyph name="y" format="1">
  <advance width="430"/>
  <unicode hex="0079"/>
  <outline>
    <contour>
      <point x="424" y="460" type="line"/>
      <point x="124" y="-220" type="line"/>
      <point x="85" y="-220" type="line"/>
      <point x="198" y="36" type="line"/>
      <point x="6" y="460" type="line"/>
      <point x="48" y="460" type="line"/>
      <point x="228" y="49" type="line"/>
      <point x="209" y="50" type="line"/>
      <point x="385" y="460" type="line"/>
    </contour>
  </outline>
</glyph>
<glyph name="asciitilde" format="1">
  <advance width="575"/>
  <unicode hex="007E"/>
  <outline>
    <contour>
      <point x="107" y="177" type="curve"/>
      <point x="74" y="181" type="line"/>
      <point x="72" y="188"/>
      <point x="71" y="196"/>
      <point x="71" y="205" type="curve" smooth="yes"/>
      <point x="71" y="234"/>
      <point x="79" y="262"/>
      <point x="97" y="285" type="curve" smooth="yes"/>
      <point x="118" y="312"/>
      <point x="150" y="327"/>
      <point x="188" y="327" type="curve" smooth="yes"/>
      <point x="240" y="327"/>
      <point x="275" y="292"/>
      <point x="307" y="260" type="curve" smooth="yes"/>
      <point x="333" y="233"/>
      <point x="362" y="205"/>
      <point x="399" y="205" type="curve" smooth="yes"/>
      <point x="447" y="205"/>
      <point x="470" y="241"/>
      <point x="470" y="292" type="curve" smooth="yes"/>
      <point x="470" y="300"/>
      <point x="469" y="312"/>
      <point x="465" y="322" type="curve"/>
      <point x="500" y="318" type="line"/>
      <point x="502" y="310"/>
      <point x="504" y="300"/>
      <point x="504" y="290" type="curve" smooth="yes"/>
      <point x="504" y="262"/>
      <point x="499" y="233"/>
      <point x="482" y="211" type="curve" smooth="yes"/>
      <point x="462" y="185"/>
      <point x="434" y="172"/>
      <point x="400" y="172" type="curve" smooth="yes"/>
      <point x="353" y="172"/>
      <point x="322" y="203"/>
      <point x="289" y="235" type="curve" smooth="yes"/>
      <point x="262" y="261"/>
      <point x="231" y="294"/>
      <point x="187" y="294" type="curve" smooth="yes"/>
      <point x="134" y="294"/>
      <point x="103" y="255"/>
      <point x="103" y="199" type="curve" smooth="yes"/>
      <point x="103" y="192"/>
      <point x="104" y="185"/>
    </contour>
  </outline>
</glyph>
<glyph name="sterling" format="1">
  <advance width="580"/>
  <unicode hex="00A3"/>
  <outline>
    <contour>
      <point x="80" y="328" type="line"/>
      <point x="408" y="328" type="line"/>
      <point x="408" y="295" type="line"/>
      <point x="80" y="295" type="line"/>
    </contour>
    <contour>
      <point x="470" y="491" type="line"/>
      <point x="466" y="568"/>
      <point x="423" y="674"/>
      <point x="315" y="674" type="curve" smooth="yes"/>
      <point x="228" y="674"/>
      <point x="166" y="610"/>
      <point x="166" y="531" type="curve" smooth="yes"/>
      <point x="166" y="410"/>
      <point x="279" y="373"/>
      <point x="279" y="264" type="curve" smooth="yes"/>
      <point x="279" y="158"/>
      <point x="166" y="55"/>
      <point x="124" y="18" type="curve"/>
      <point x="122" y="35" type="line"/>
      <point x="504" y="35" type="line"/>
      <point x="504" y="0" type="line"/>
      <point x="83" y="0" type="line"/>
      <point x="168" y="102"/>
      <point x="243" y="171"/>
      <point x="243" y="259" type="curve" smooth="yes"/>
      <point x="243" y="358"/>
      <point x="129" y="401"/>
      <point x="129" y="531" type="curve" smooth="yes"/>
      <point x="129" y="631"/>
      <point x="202" y="710"/>
      <point x="315" y="710" type="curve" smooth="yes"/>
      <point x="448" y="710"/>
      <point x="497" y="582"/>
      <point x="502" y="502" type="curve"/>
    </contour>
  </outline>
</glyph>
<glyph name="yen" format="1">
  <advance width="570"/>
  <unicode hex="00A5"/>
  <outline>
    <contour>
      <point x="254" y="306" type="line"/>
      <point x="292" y="306" type="line"/>
      <point x="292" y="0" type="line"/>
      <point x="254" y="0" type="line"/>
    </contour>
    <contour>
      <point x="486" y="700" type="line"/>
      <point x="528" y="700" type="line"/>
      <point x="273" y="246" type="line"/>
      <point x="25" y="700" type="line"/>
      <point x="67" y="700" type="line"/>
      <point x="273" y="315" type="line"/>
    </contour>
    <contour>
      <point x="35" y="143" type="line"/>
      <point x="35" y="177" type="line"/>
      <point x="515" y="177" type="line"/>
      <point x="515" y="143" type="line"/>
    </contour>
    <contour>
      <point x="35" y="277" type="line"/>
      <point x="35" y="311" type="line"/>
      <point x="515" y="311" type="line"/>
      <point x="515" y="277" type="line"/>
    </contour>
  </outline>
</glyph>
<glyph name="ordfeminine" format="1">
  <advance width="238"/>
  <unicode hex="00AA"/>
  <outline>
    <contour>
      <point x="41" y="529" type="curve" smooth="yes"/>
      <point x="41" y="490"/>
      <point x="69" y="471"/>
      <point x="105" y="471" type="curve" smooth="yes"/>
      <point x="146" y="471"/>
      <point x="181" y="501"/>
      <point x="181" y="544" type="curve"/>
      <point x="186" y="535" type="line"/>
      <point x="186" y="491"/>
      <point x="151" y="455"/>
      <point x="101" y="455" type="curve" smooth="yes"/>
      <point x="62" y="455"/>
      <point x="24" y="478"/>
      <point x="24" y="529" type="curve" smooth="yes"/>
      <point x="24" y="577"/>
      <point x="70" y="605"/>
      <point x="117" y="605" type="curve" smooth="yes"/>
      <point x="158" y="605"/>
      <point x="179" y="588"/>
      <point x="188" y="580" type="curve"/>
      <point x="188" y="567" type="line"/>
      <point x="172" y="580"/>
      <point x="149" y="591"/>
      <point x="117" y="591" type="curve" smooth="yes"/>
      <point x="77" y="591"/>
      <point x="41" y="568"/>
    </contour>
    <contour>
      <point x="53" y="656" type="curve"/>
      <point x="43" y="670" type="line"/>
      <point x="60" y="685"/>
      <point x="87" y="702"/>
      <point x="125" y="702" type="curve" smooth="yes"/>
      <point x="172" y="702"/>
      <point x="199" y="673"/>
      <point x="199" y="629" type="curve" smooth="yes"/>
      <point x="199" y="460" type="line"/>
      <point x="181" y="460" type="line"/>
      <point x="181" y="629" type="line" smooth="yes"/>
      <point x="181" y="665"/>
      <point x="161" y="686"/>
      <point x="125" y="686" type="curve" smooth="yes"/>
      <point x="92" y="686"/>
      <point x="69" y="670"/>
    </contour>
  </outline>
</glyph>
<glyph name="guillemotleft" format="1">
  <advance width="494"/>
  <unicode hex="00AB"/>
  <outline>
    <contour>
      <point x="72" y="248" type="line"/>
      <point x="40" y="255" type="line"/>
      <point x="241" y="490" type="line"/>
      <point x="264" y="469" type="line"/>
    </contour>
    <contour>
      <point x="40" y="255" type="line"/>
      <point x="72" y="266" type="line"/>
      <point x="264" y="41" type="line"/>
      <point x="241" y="20" type="line"/>
    </contour>
    <contour>
      <point x="232" y="248" type="line"/>
      <point x="200" y="255" type="line"/>
      <point x="401" y="490" type="line"/>
      <point x="424" y="469" type="line"/>
    </contour>
    <contour>
      <point x="200" y="255" type="line"/>
      <point x="232" y="266" type="line"/>
      <point x="424" y="41" type="line"/>
      <point x="401" y="20" type="line"/>
    </contour>
  </outline>
</glyph>
<glyph name="registered" format="1">
  <advance width="800"/>
  <unicode hex="00AE"/>
  <outline>
    <contour>
      <point x="360" y="346" type="line"/>
      <point x="385" y="346" type="line"/>
      <point x="524" y="150" type="line"/>
      <point x="496" y="150" type="line"/>
    </contour>
    <contour>
      <point x="290" y="570" type="line"/>
      <point x="313" y="570" type="line"/>
      <point x="313" y="150" type="line"/>
      <point x="290" y="150" type="line"/>
    </contour>
    <contour>
      <point x="302" y="549" type="line"/>
      <point x="302" y="570" type="line"/>
      <point x="376" y="570" type="line" smooth="yes"/>
      <point x="457" y="570"/>
      <point x="518" y="527"/>
      <point x="518" y="450" type="curve" smooth="yes"/>
      <point x="518" y="373"/>
      <point x="457" y="331"/>
      <point x="376" y="331" type="curve" smooth="yes"/>
      <point x="302" y="331" type="line"/>
      <point x="302" y="351" type="line"/>
      <point x="376" y="351" type="line" smooth="yes"/>
      <point x="446" y="351"/>
      <point x="496" y="384"/>
      <point x="496" y="450" type="curve" smooth="yes"/>
      <point x="496" y="516"/>
      <point x="446" y="549"/>
      <point x="376" y="549" type="curve" smooth="yes"/>
    </contour>
    <contour>
      <point x="66" y="350" type="curve" smooth="yes"/>
      <point x="66" y="156"/>
      <point x="214" y="14"/>
      <point x="400" y="14" type="curve" smooth="yes"/>
      <point x="586" y="14"/>
      <point x="734" y="156"/>
      <point x="734" y="350" type="curve" smooth="yes"/>
      <point x="734" y="544"/>
      <point x="586" y="686"/>
      <point x="400" y="686" type="curve" smooth="yes"/>
      <point x="214" y="686"/>
      <point x="66" y="544"/>
    </contour>
    <contour>
      <point x="40" y="350" type="curve" smooth="yes"/>
      <point x="40" y="559"/>
      <point x="196" y="710"/>
      <point x="400" y="710" type="curve" smooth="yes"/>
      <point x="604" y="710"/>
      <point x="760" y="559"/>
      <point x="760" y="350" type="curve" smooth="yes"/>
      <point x="760" y="141"/>
      <point x="604" y="-10"/>
      <point x="400" y="-10" type="curve" smooth="yes"/>
      <point x="196" y="-10"/>
      <point x="40" y="141"/>
    </contour>
  </outline>
</glyph>
<glyph name="plusminus" format="1">
  <advance width="611"/>
  <unicode hex="00B1"/>
  <outline>
    <contour>
      <point x="65" y="0" type="line"/>
      <point x="65" y="35" type="line"/>
      <point x="547" y="35" type="line"/>
      <point x="547" y="0" type="line"/>
    </contour>
    <contour>
      <point x="65" y="367" type="line"/>
      <point x="65" y="403" type="line"/>
      <point x="547" y="403" type="line"/>
      <point x="547" y="367" type="line"/>
    </contour>
    <contour>
      <point x="287" y="620" type="line"/>
      <point x="324" y="620" type="line"/>
      <point x="324" y="150" type="line"/>
      <point x="287" y="150" type="line"/>
    </contour>
  </outline>
</glyph>
<glyph name="uni00B2" format="1">
  <advance width="336"/>
  <unicode hex="00B2"/>
  <outline>
    <contour>
      <point x="28" y="282" type="line"/>
      <point x="223" y="487" type="line" smooth="yes"/>
      <point x="251" y="517"/>
      <point x="275" y="547"/>
      <point x="275" y="591" type="curve" smooth="yes"/>
      <point x="275" y="634"/>
      <point x="247" y="688"/>
      <point x="179" y="688" type="curve" smooth="yes"/>
      <point x="114" y="688"/>
      <point x="71" y="635"/>
      <point x="71" y="558" type="curve"/>
      <point x="49" y="558" type="line"/>
      <point x="49" y="647"/>
      <point x="100" y="709"/>
      <point x="179" y="709" type="curve" smooth="yes"/>
      <point x="263" y="709"/>
      <point x="297" y="642"/>
      <point x="297" y="590" type="curve" smooth="yes"/>
      <point x="297" y="543"/>
      <point x="271" y="506"/>
      <point x="240" y="474" type="curve" smooth="yes"/>
      <point x="76" y="303" type="line"/>
      <point x="309" y="303" type="line"/>
      <point x="309" y="282" type="line"/>
    </contour>
  </outline>
</glyph>
<glyph name="uni00B3" format="1">
  <advance width="309"/>
  <unicode hex="00B3"/>
  <outline>
    <contour>
      <point x="141" y="493" type="curve"/>
      <point x="141" y="509" type="line"/>
      <point x="195" y="509"/>
      <point x="251" y="544"/>
      <point x="251" y="598" type="curve" smooth="yes"/>
      <point x="251" y="644"/>
      <point x="220" y="686"/>
      <point x="162" y="686" type="curve" smooth="yes"/>
      <point x="107" y="686"/>
      <point x="68" y="649"/>
      <point x="68" y="596" type="curve"/>
      <point x="46" y="596" type="line"/>
      <point x="46" y="661"/>
      <point x="93" y="706"/>
      <point x="162" y="706" type="curve" smooth="yes"/>
      <point x="234" y="706"/>
      <point x="273" y="653"/>
      <point x="273" y="598" type="curve" smooth="yes"/>
      <point x="273" y="535"/>
      <point x="211" y="493"/>
    </contour>
    <contour>
      <point x="159" y="274" type="curve" smooth="yes"/>
      <point x="78" y="274"/>
      <point x="28" y="326"/>
      <point x="28" y="391" type="curve"/>
      <point x="51" y="391" type="line"/>
      <point x="51" y="335"/>
      <point x="92" y="295"/>
      <point x="159" y="295" type="curve" smooth="yes"/>
      <point x="223" y="295"/>
      <point x="263" y="333"/>
      <point x="263" y="389" type="curve" smooth="yes"/>
      <point x="263" y="456"/>
      <point x="195" y="488"/>
      <point x="141" y="488" type="curve"/>
      <point x="141" y="503" type="line"/>
      <point x="211" y="503"/>
      <point x="285" y="466"/>
      <point x="285" y="387" type="curve" smooth="yes"/>
      <point x="285" y="320"/>
      <point x="234" y="274"/>
    </contour>
  </outline>
</glyph>
<glyph name="acute" format="1">
  <advance width="360"/>
  <unicode hex="00B4"/>
  <outline>
    <contour>
      <point x="270" y="681" type="line"/>
      <point x="94" y="526" type="line"/>
      <point x="75" y="540" type="line"/>
      <point x="238" y="700" type="line"/>
    </contour>
  </outline>
</glyph>
<glyph name="mu" format="1">
  <advance width="493"/>
  <unicode hex="00B5"/>
  <outline>
    <contour>
      <point x="376" y="0" type="line"/>
      <point x="376" y="460" type="line"/>
      <point x="412" y="460" type="line"/>
      <point x="412" y="0" type="line"/>
    </contour>
    <contour>
      <point x="117" y="161" type="line" smooth="yes"/>
      <point x="117" y="75"/>
      <point x="150" y="23"/>
      <point x="231" y="23" type="curve" smooth="yes"/>
      <point x="314" y="23"/>
      <point x="376" y="95"/>
      <point x="376" y="180" type="curve"/>
      <point x="393" y="180" type="line"/>
      <point x="393" y="71"/>
      <point x="318" y="-10"/>
      <point x="223" y="-10" type="curve" smooth="yes"/>
      <point x="128" y="-10"/>
      <point x="81" y="51"/>
      <point x="81" y="157" type="curve" smooth="yes"/>
      <point x="81" y="460" type="line"/>
      <point x="117" y="460" type="line"/>
    </contour>
    <contour>
      <point x="81" y="460" type="line"/>
      <point x="117" y="460" type="line"/>
      <point x="117" y="-320" type="line"/>
      <point x="81" y="-320" type="line"/>
    </contour>
  </outline>
</glyph>
<glyph name="paragraph" format="1">
  <advance width="494"/>
  <unicode hex="00B6"/>
  <outline>
    <contour>
      <point x="288" y="670" type="line"/>
      <point x="288" y="700" type="line"/>
      <point x="424" y="700" type="line"/>
      <point x="424" y="670" type="line"/>
    </contour>
    <contour>
      <point x="403" y="700" type="line"/>
      <point x="435" y="700" type="line"/>
      <point x="435" y="-220" type="line"/>
      <point x="403" y="-220" type="line"/>
    </contour>
    <contour>
      <point x="288" y="700" type="line"/>
      <point x="320" y="700" type="line"/>
      <point x="320" y="-220" type="line"/>
      <point x="288" y="-220" type="line"/>
    </contour>
    <contour>
      <point x="288" y="270" type="line"/>
      <point x="163" y="270"/>
      <point x="60" y="346"/>
      <point x="60" y="485" type="curve" smooth="yes"/>
      <point x="60" y="624"/>
      <point x="163" y="700"/>
      <point x="288" y="700" type="curve"/>
    </contour>
  </outline>
</glyph>
<glyph name="periodcentered" format="1">
  <advance width="262"/>
  <unicode hex="00B7"/>
  <outline>
    <contour>
      <point x="105" y="228" type="curve" smooth="yes"/>
      <point x="105" y="243"/>
      <point x="117" y="255"/>
      <point x="131" y="255" type="curve" smooth="yes"/>
      <point x="145" y="255"/>
      <point x="158" y="243"/>
      <point x="158" y="228" type="curve" smooth="yes"/>
      <point x="158" y="213"/>
      <point x="145" y="201"/>
      <point x="131" y="201" type="curve" smooth="yes"/>
      <point x="117" y="201"/>
      <point x="105" y="213"/>
    </contour>
  </outline>
</glyph>
<glyph name="cedilla" format="1">
  <advance width="350"/>
  <unicode hex="00B8"/>
  <outline>
    <contour>
      <point x="183" y="22" type="line"/>
      <point x="213" y="22" type="line"/>
      <point x="154" y="-68" type="line"/>
      <point x="117" y="-95" type="line"/>
    </contour>
    <contour>
      <point x="275" y="-126" type="curve"/>
      <point x="248" y="-126" type="line"/>
      <point x="248" y="-89"/>
      <point x="221" y="-72"/>
      <point x="190" y="-72" type="curve" smooth="yes"/>
      <point x="167" y="-72"/>
      <point x="140" y="-79"/>
      <point x="117" y="-95" type="curve"/>
      <point x="139" y="-73" type="line"/>
      <point x="165" y="-57"/>
      <point x="176" y="-52"/>
      <point x="202" y="-52" type="curve" smooth="yes"/>
      <point x="235" y="-52"/>
      <point x="275" y="-77"/>
    </contour>
    <contour>
      <point x="275" y="-126" type="line"/>
      <point x="275" y="-187"/>
      <point x="223" y="-220"/>
      <point x="168" y="-220" type="curve" smooth="yes"/>
      <point x="131" y="-220"/>
      <point x="107" y="-210"/>
      <point x="79" y="-182" type="curve"/>
      <point x="96" y="-164" type="line"/>
      <point x="121" y="-185"/>
      <point x="137" y="-194"/>
      <point x="168" y="-194" type="curve" smooth="yes"/>
      <point x="210" y="-194"/>
      <point x="248" y="-171"/>
      <point x="248" y="-126" type="curve"/>
    </contour>
  </outline>
</glyph>
<glyph name="uni00B9" format="1">
  <advance width="470"/>
  <unicode hex="00B9"/>
  <outline>
    <contour>
      <point x="146" y="646" type="line"/>
      <point x="146" y="670" type="line"/>
      <point x="267" y="698" type="line"/>
      <point x="267" y="274" type="line"/>
      <point x="245" y="274" type="line"/>
      <point x="245" y="671" type="line"/>
    </contour>
  </outline>
</glyph>
<glyph name="onequarter" format="1">
  <advance width="754"/>
  <unicode hex="00BC"/>
  <outline>
    <contour>
      <point x="652" y="700" type="line"/>
      <point x="683" y="700" type="line"/>
      <point x="129" y="0" type="line"/>
      <point x="98" y="0" type="line"/>
    </contour>
    <contour>
      <point x="24" y="646" type="line"/>
      <point x="24" y="670" type="line"/>
      <point x="145" y="698" type="line"/>
      <point x="145" y="274" type="line"/>
      <point x="123" y="274" type="line"/>
      <point x="123" y="671" type="line"/>
    </contour>
    <contour>
      <point x="400" y="84" type="line"/>
      <point x="419" y="104" type="line"/>
      <point x="625" y="104" type="line" smooth="yes"/>
      <point x="630" y="104" type="line" smooth="yes"/>
      <point x="705" y="104" type="line"/>
      <point x="705" y="84" type="line"/>
    </contour>
    <contour>
      <point x="424" y="84" type="line"/>
      <point x="400" y="84" type="line"/>
      <point x="631" y="420" type="line"/>
      <point x="639" y="420" type="line"/>
      <point x="639" y="0" type="line"/>
      <point x="617" y="0" type="line"/>
      <point x="617" y="93" type="line" smooth="yes"/>
      <point x="617" y="96" type="line" smooth="yes"/>
      <point x="617" y="366" type="line"/>
    </contour>
  </outline>
</glyph>
<glyph name="onehalf" format="1">
  <advance width="819"/>
  <unicode hex="00BD"/>
  <outline>
    <contour>
      <point x="652" y="700" type="line"/>
      <point x="683" y="700" type="line"/>
      <point x="129" y="0" type="line"/>
      <point x="98" y="0" type="line"/>
    </contour>
    <contour>
      <point x="24" y="646" type="line"/>
      <point x="24" y="670" type="line"/>
      <point x="145" y="698" type="line"/>
      <point x="145" y="274" type="line"/>
      <point x="123" y="274" type="line"/>
      <point x="123" y="671" type="line"/>
    </contour>
    <contour>
      <point x="495" y="2" type="line"/>
      <point x="689" y="206" type="line" smooth="yes"/>
      <point x="717" y="236"/>
      <point x="741" y="267"/>
      <point x="741" y="311" type="curve" smooth="yes"/>
      <point x="741" y="354"/>
      <point x="714" y="408"/>
      <point x="646" y="408" type="curve" smooth="yes"/>
      <point x="581" y="408"/>
      <point x="537" y="355"/>
      <point x="537" y="278" type="curve"/>
      <point x="515" y="278" type="line"/>
      <point x="515" y="367"/>
      <point x="567" y="429"/>
      <point x="646" y="429" type="curve" smooth="yes"/>
      <point x="730" y="429"/>
      <point x="765" y="361"/>
      <point x="765" y="309" type="curve" smooth="yes"/>
      <point x="765" y="262"/>
      <point x="738" y="226"/>
      <point x="707" y="194" type="curve" smooth="yes"/>
      <point x="542" y="23" type="line"/>
      <point x="776" y="23" type="line"/>
      <point x="776" y="2" type="line"/>
    </contour>
  </outline>
</glyph>
<glyph name="threequarters" format="1">
  <advance width="820"/>
  <unicode hex="00BE"/>
  <outline>
    <contour>
      <point x="719" y="700" type="line"/>
      <point x="750" y="700" type="line"/>
      <point x="196" y="0" type="line"/>
      <point x="165" y="0" type="line"/>
    </contour>
    <contour>
      <point x="146" y="493" type="curve"/>
      <point x="146" y="509" type="line"/>
      <point x="200" y="509"/>
      <point x="256" y="544"/>
      <point x="256" y="598" type="curve" smooth="yes"/>
      <point x="256" y="644"/>
      <point x="225" y="686"/>
      <point x="167" y="686" type="curve" smooth="yes"/>
      <point x="112" y="686"/>
      <point x="73" y="649"/>
      <point x="73" y="596" type="curve"/>
      <point x="51" y="596" type="line"/>
      <point x="51" y="661"/>
      <point x="98" y="706"/>
      <point x="167" y="706" type="curve" smooth="yes"/>
      <point x="239" y="706"/>
      <point x="278" y="653"/>
      <point x="278" y="598" type="curve" smooth="yes"/>
      <point x="278" y="535"/>
      <point x="216" y="493"/>
    </contour>
    <contour>
      <point x="164" y="274" type="curve" smooth="yes"/>
      <point x="83" y="274"/>
      <point x="33" y="326"/>
      <point x="33" y="391" type="curve"/>
      <point x="56" y="391" type="line"/>
      <point x="56" y="335"/>
      <point x="97" y="295"/>
      <point x="164" y="295" type="curve" smooth="yes"/>
      <point x="228" y="295"/>
      <point x="268" y="333"/>
      <point x="268" y="389" type="curve" smooth="yes"/>
      <point x="268" y="456"/>
      <point x="200" y="488"/>
      <point x="146" y="488" type="curve"/>
      <point x="146" y="503" type="line"/>
      <point x="216" y="503"/>
      <point x="290" y="466"/>
      <point x="290" y="387" type="curve" smooth="yes"/>
      <point x="290" y="320"/>
      <point x="239" y="274"/>
    </contour>
    <contour>
      <point x="467" y="84" type="line"/>
      <point x="486" y="104" type="line"/>
      <point x="692" y="104" type="line" smooth="yes"/>
      <point x="697" y="104" type="line" smooth="yes"/>
      <point x="772" y="104" type="line"/>
      <point x="772" y="84" type="line"/>
    </contour>
    <contour>
      <point x="491" y="84" type="line"/>
      <point x="467" y="84" type="line"/>
      <point x="698" y="420" type="line"/>
      <point x="706" y="420" type="line"/>
      <point x="706" y="0" type="line"/>
      <point x="684" y="0" type="line"/>
      <point x="684" y="93" type="line" smooth="yes"/>
      <point x="684" y="96" type="line" smooth="yes"/>
      <point x="684" y="366" type="line"/>
    </contour>
  </outline>
</glyph>
<glyph name="Atilde" format="1">
  <advance width="621"/>
  <unicode hex="00C3"/>
  <outline>
    <contour>
      <point x="134" y="250" type="line"/>
      <point x="145" y="285" type="line"/>
      <point x="477" y="285" type="line"/>
      <point x="488" y="250" type="line"/>
    </contour>
    <contour>
      <point x="311" y="635" type="line"/>
      <point x="164" y="272" type="line"/>
      <point x="160" y="263" type="line"/>
      <point x="53" y="0" type="line"/>
      <point x="11" y="0" type="line"/>
      <point x="311" y="722" type="line"/>
      <point x="610" y="0" type="line"/>
      <point x="568" y="0" type="line"/>
      <point x="463" y="261" type="line"/>
      <point x="460" y="270" type="line"/>
    </contour>
    <contour>
      <point x="171" y="802" type="line"/>
      <point x="175" y="838"/>
      <point x="203" y="868"/>
      <point x="248" y="868" type="curve" smooth="yes"/>
      <point x="307" y="868"/>
      <point x="318" y="821"/>
      <point x="372" y="821" type="curve" smooth="yes"/>
      <point x="397" y="821"/>
      <point x="411" y="837"/>
      <point x="428" y="869" type="curve"/>
      <point x="451" y="852" type="line"/>
      <point x="435" y="815"/>
      <point x="407" y="792"/>
      <point x="370" y="792" type="curve" smooth="yes"/>
      <point x="315" y="792"/>
      <point x="294" y="839"/>
      <point x="249" y="839" type="curve" smooth="yes"/>
      <point x="208" y="839"/>
      <point x="196" y="809"/>
      <point x="196" y="788" type="curve"/>
    </contour>
  </outline>
</glyph>
<glyph name="Adieresis" format="1">
  <advance width="621"/>
  <unicode hex="00C4"/>
  <outline>
    <contour>
      <point x="134" y="250" type="line"/>
      <point x="145" y="285" type="line"/>
      <point x="477" y="285" type="line"/>
      <point x="488" y="250" type="line"/>
    </contour>
    <contour>
      <point x="311" y="635" type="line"/>
      <point x="164" y="272" type="line"/>
      <point x="160" y="263" type="line"/>
      <point x="53" y="0" type="line"/>
      <point x="11" y="0" type="line"/>
      <point x="311" y="722" type="line"/>
      <point x="610" y="0" type="line"/>
      <point x="568" y="0" type="line"/>
      <point x="463" y="261" type="line"/>
      <point x="460" y="270" type="line"/>
    </contour>
    <contour>
      <point x="384" y="822" type="curve" smooth="yes"/>
      <point x="384" y="837"/>
      <point x="397" y="849"/>
      <point x="411" y="849" type="curve" smooth="yes"/>
      <point x="425" y="849"/>
      <point x="437" y="837"/>
      <point x="437" y="822" type="curve" smooth="yes"/>
      <point x="437" y="807"/>
      <point x="425" y="795"/>
      <point x="411" y="795" type="curve" smooth="yes"/>
      <point x="397" y="795"/>
      <point x="384" y="807"/>
    </contour>
    <contour>
      <point x="184" y="822" type="curve" smooth="yes"/>
      <point x="184" y="837"/>
      <point x="197" y="849"/>
      <point x="211" y="849" type="curve" smooth="yes"/>
      <point x="225" y="849"/>
      <point x="237" y="837"/>
      <point x="237" y="822" type="curve" smooth="yes"/>
      <point x="237" y="807"/>
      <point x="225" y="795"/>
      <point x="211" y="795" type="curve" smooth="yes"/>
      <point x="197" y="795"/>
      <point x="184" y="807"/>
    </contour>
  </outline>
</glyph>
<glyph name="Aring" format="1">
  <advance width="621"/>
  <unicode hex="00C5"/>
  <outline>
    <contour>
      <point x="134" y="250" type="line"/>
      <point x="145" y="285" type="line"/>
      <point x="477" y="285" type="line"/>
      <point x="488" y="250" type="line"/>
    </contour>
    <contour>
      <point x="311" y="635" type="line"/>
      <point x="164" y="272" type="line"/>
      <point x="160" y="263" type="line"/>
      <point x="53" y="0" type="line"/>
      <point x="11" y="0" type="line"/>
      <point x="311" y="722" type="line"/>
      <point x="610" y="0" type="line"/>
      <point x="568" y="0" type="line"/>
      <point x="463" y="261" type="line"/>
      <point x="460" y="270" type="line"/>
    </contour>
    <contour>
      <point x="209" y="804" type="curve" smooth="yes"/>
      <point x="209" y="864"/>
      <point x="259" y="904"/>
      <point x="311" y="904" type="curve" smooth="yes"/>
      <point x="363" y="904"/>
      <point x="413" y="864"/>
      <point x="413" y="804" type="curve" smooth="yes"/>
      <point x="413" y="744"/>
      <point x="363" y="704"/>
      <point x="311" y="704" type="curve" smooth="yes"/>
      <point x="259" y="704"/>
      <point x="209" y="744"/>
    </contour>
    <contour>
      <point x="234" y="804" type="curve" smooth="yes"/>
      <point x="234" y="758"/>
      <point x="271" y="728"/>
      <point x="311" y="728" type="curve" smooth="yes"/>
      <point x="351" y="728"/>
      <point x="388" y="758"/>
      <point x="388" y="804" type="curve" smooth="yes"/>
      <point x="388" y="850"/>
      <point x="351" y="881"/>
      <point x="311" y="881" type="curve" smooth="yes"/>
      <point x="271" y="881"/>
      <point x="234" y="850"/>
    </contour>
  </outline>
</glyph>
<glyph name="Igrave" format="1">
  <advance width="203"/>
  <unicode hex="00CC"/>
  <outline>
    <contour>
      <point x="83" y="700" type="line"/>
      <point x="120" y="700" type="line"/>
      <point x="120" y="0" type="line"/>
      <point x="83" y="0" type="line"/>
    </contour>
    <contour>
      <point x="-45" y="923" type="line"/>
      <point x="-12" y="943" type="line"/>
      <point x="150" y="783" type="line"/>
      <point x="131" y="769" type="line"/>
    </contour>
  </outline>
</glyph>
<glyph name="Iacute" format="1">
  <advance width="203"/>
  <unicode hex="00CD"/>
  <outline>
    <contour>
      <point x="83" y="700" type="line"/>
      <point x="120" y="700" type="line"/>
      <point x="120" y="0" type="line"/>
      <point x="83" y="0" type="line"/>
    </contour>
    <contour>
      <point x="248" y="923" type="line"/>
      <point x="72" y="769" type="line"/>
      <point x="54" y="783" type="line"/>
      <point x="216" y="943" type="line"/>
    </contour>
  </outline>
</glyph>
<glyph name="Icircumflex" format="1">
  <advance width="203"/>
  <unicode hex="00CE"/>
  <outline>
    <contour>
      <point x="83" y="700" type="line"/>
      <point x="120" y="700" type="line"/>
      <point x="120" y="0" type="line"/>
      <point x="83" y="0" type="line"/>
    </contour>
    <contour>
      <point x="101" y="889" type="line"/>
      <point x="-36" y="769" type="line"/>
      <point x="-59" y="788" type="line"/>
      <point x="101" y="928" type="line"/>
      <point x="261" y="788" type="line"/>
      <point x="239" y="769" type="line"/>
    </contour>
  </outline>
</glyph>
<glyph name="Ocircumflex" format="1">
  <advance width="779"/>
  <unicode hex="00D4"/>
  <outline>
    <contour>
      <point x="86" y="350" type="curve" smooth="yes"/>
      <point x="86" y="165"/>
      <point x="213" y="29"/>
      <point x="390" y="29" type="curve" smooth="yes"/>
      <point x="567" y="29"/>
      <point x="694" y="165"/>
      <point x="694" y="350" type="curve" smooth="yes"/>
      <point x="694" y="535"/>
      <point x="567" y="671"/>
      <point x="390" y="671" type="curve" smooth="yes"/>
      <point x="213" y="671"/>
      <point x="86" y="535"/>
    </contour>
    <contour>
      <point x="46" y="350" type="curve" smooth="yes"/>
      <point x="46" y="557"/>
      <point x="192" y="709"/>
      <point x="390" y="709" type="curve" smooth="yes"/>
      <point x="588" y="709"/>
      <point x="734" y="557"/>
      <point x="734" y="350" type="curve" smooth="yes"/>
      <point x="734" y="143"/>
      <point x="588" y="-9"/>
      <point x="390" y="-9" type="curve" smooth="yes"/>
      <point x="192" y="-9"/>
      <point x="46" y="143"/>
    </contour>
    <contour>
      <point x="390" y="889" type="line"/>
      <point x="253" y="769" type="line"/>
      <point x="230" y="788" type="line"/>
      <point x="390" y="928" type="line"/>
      <point x="550" y="788" type="line"/>
      <point x="527" y="769" type="line"/>
    </contour>
  </outline>
</glyph>
<glyph name="Otilde" format="1">
  <advance width="779"/>
  <unicode hex="00D5"/>
  <outline>
    <contour>
      <point x="86" y="350" type="curve" smooth="yes"/>
      <point x="86" y="165"/>
      <point x="213" y="29"/>
      <point x="390" y="29" type="curve" smooth="yes"/>
      <point x="567" y="29"/>
      <point x="694" y="165"/>
      <point x="694" y="350" type="curve" smooth="yes"/>
      <point x="694" y="535"/>
      <point x="567" y="671"/>
      <point x="390" y="671" type="curve" smooth="yes"/>
      <point x="213" y="671"/>
      <point x="86" y="535"/>
    </contour>
    <contour>
      <point x="46" y="350" type="curve" smooth="yes"/>
      <point x="46" y="557"/>
      <point x="192" y="709"/>
      <point x="390" y="709" type="curve" smooth="yes"/>
      <point x="588" y="709"/>
      <point x="734" y="557"/>
      <point x="734" y="350" type="curve" smooth="yes"/>
      <point x="734" y="143"/>
      <point x="588" y="-9"/>
      <point x="390" y="-9" type="curve" smooth="yes"/>
      <point x="192" y="-9"/>
      <point x="46" y="143"/>
    </contour>
    <contour>
      <point x="250" y="796" type="line"/>
      <point x="254" y="832"/>
      <point x="282" y="862"/>
      <point x="327" y="862" type="curve" smooth="yes"/>
      <point x="386" y="862"/>
      <point x="397" y="815"/>
      <point x="451" y="815" type="curve" smooth="yes"/>
      <point x="476" y="815"/>
      <point x="490" y="831"/>
      <point x="507" y="863" type="curve"/>
      <point x="530" y="846" type="line"/>
      <point x="514" y="809"/>
      <point x="486" y="785"/>
      <point x="449" y="785" type="curve" smooth="yes"/>
      <point x="394" y="785"/>
      <point x="373" y="832"/>
      <point x="328" y="832" type="curve" smooth="yes"/>
      <point x="287" y="832"/>
      <point x="275" y="802"/>
      <point x="275" y="781" type="curve"/>
    </contour>
  </outline>
</glyph>
<glyph name="Ugrave" format="1">
  <advance width="594"/>
  <unicode hex="00D9"/>
  <outline>
    <contour>
      <point x="81" y="700" type="line"/>
      <point x="119" y="700" type="line"/>
      <point x="119" y="224" type="line" smooth="yes"/>
      <point x="119" y="102"/>
      <point x="184" y="26"/>
      <point x="297" y="26" type="curve" smooth="yes"/>
      <point x="410" y="26"/>
      <point x="475" y="102"/>
      <point x="475" y="224" type="curve" smooth="yes"/>
      <point x="475" y="700" type="line"/>
      <point x="513" y="700" type="line"/>
      <point x="513" y="224" type="line" smooth="yes"/>
      <point x="513" y="85"/>
      <point x="436" y="-10"/>
      <point x="297" y="-10" type="curve" smooth="yes"/>
      <point x="158" y="-10"/>
      <point x="81" y="85"/>
      <point x="81" y="224" type="curve" smooth="yes"/>
    </contour>
    <contour>
      <point x="164" y="923" type="line"/>
      <point x="196" y="943" type="line"/>
      <point x="358" y="783" type="line"/>
      <point x="339" y="769" type="line"/>
    </contour>
  </outline>
</glyph>
<glyph name="Ucircumflex" format="1">
  <advance width="594"/>
  <unicode hex="00DB"/>
  <outline>
    <contour>
      <point x="81" y="700" type="line"/>
      <point x="119" y="700" type="line"/>
      <point x="119" y="224" type="line" smooth="yes"/>
      <point x="119" y="102"/>
      <point x="184" y="26"/>
      <point x="297" y="26" type="curve" smooth="yes"/>
      <point x="410" y="26"/>
      <point x="475" y="102"/>
      <point x="475" y="224" type="curve" smooth="yes"/>
      <point x="475" y="700" type="line"/>
      <point x="513" y="700" type="line"/>
      <point x="513" y="224" type="line" smooth="yes"/>
      <point x="513" y="85"/>
      <point x="436" y="-10"/>
      <point x="297" y="-10" type="curve" smooth="yes"/>
      <point x="158" y="-10"/>
      <point x="81" y="85"/>
      <point x="81" y="224" type="curve" smooth="yes"/>
    </contour>
    <contour>
      <point x="297" y="889" type="line"/>
      <point x="160" y="769" type="line"/>
      <point x="137" y="788" type="line"/>
      <point x="297" y="928" type="line"/>
      <point x="457" y="788" type="line"/>
      <point x="434" y="769" type="line"/>
    </contour>
  </outline>
</glyph>
<glyph name="Udieresis" format="1">
  <advance width="594"/>
  <unicode hex="00DC"/>
  <outline>
    <contour>
      <point x="81" y="700" type="line"/>
      <point x="119" y="700" type="line"/>
      <point x="119" y="224" type="line" smooth="yes"/>
      <point x="119" y="102"/>
      <point x="184" y="26"/>
      <point x="297" y="26" type="curve" smooth="yes"/>
      <point x="410" y="26"/>
      <point x="475" y="102"/>
      <point x="475" y="224" type="curve" smooth="yes"/>
      <point x="475" y="700" type="line"/>
      <point x="513" y="700" type="line"/>
      <point x="513" y="224" type="line" smooth="yes"/>
      <point x="513" y="85"/>
      <point x="436" y="-10"/>
      <point x="297" y="-10" type="curve" smooth="yes"/>
      <point x="158" y="-10"/>
      <point x="81" y="85"/>
      <point x="81" y="224" type="curve" smooth="yes"/>
    </contour>
    <contour>
      <point x="364" y="796" type="curve" smooth="yes"/>
      <point x="364" y="811"/>
      <point x="377" y="822"/>
      <point x="391" y="822" type="curve" smooth="yes"/>
      <point x="405" y="822"/>
      <point x="417" y="811"/>
      <point x="417" y="796" type="curve" smooth="yes"/>
      <point x="417" y="781"/>
      <point x="405" y="769"/>
      <point x="391" y="769" type="curve" smooth="yes"/>
      <point x="377" y="769"/>
      <point x="364" y="781"/>
    </contour>
    <contour>
      <point x="177" y="796" type="curve" smooth="yes"/>
      <point x="177" y="811"/>
      <point x="189" y="822"/>
      <point x="203" y="822" type="curve" smooth="yes"/>
      <point x="217" y="822"/>
      <point x="230" y="811"/>
      <point x="230" y="796" type="curve" smooth="yes"/>
      <point x="230" y="781"/>
      <point x="217" y="769"/>
      <point x="203" y="769" type="curve" smooth="yes"/>
      <point x="189" y="769"/>
      <point x="177" y="781"/>
    </contour>
  </outline>
</glyph>
<glyph name="germandbls" format="1">
  <advance width="544"/>
  <unicode hex="00DF"/>
  <outline>
    <contour>
      <point x="80" y="606" type="line"/>
      <point x="115" y="606" type="line"/>
      <point x="115" y="0" type="line"/>
      <point x="80" y="0" type="line"/>
    </contour>
    <contour>
      <point x="239" y="438" type="curve"/>
      <point x="239" y="463" type="line"/>
      <point x="349" y="463"/>
      <point x="424" y="508"/>
      <point x="424" y="602" type="curve" smooth="yes"/>
      <point x="424" y="687"/>
      <point x="380" y="757"/>
      <point x="264" y="757" type="curve" smooth="yes"/>
      <point x="178" y="757"/>
      <point x="115" y="695"/>
      <point x="115" y="606" type="curve"/>
      <point x="80" y="606" type="line"/>
      <point x="80" y="715"/>
      <point x="159" y="790"/>
      <point x="264" y="790" type="curve" smooth="yes"/>
      <point x="399" y="790"/>
      <point x="459" y="715"/>
      <point x="459" y="606" type="curve" smooth="yes"/>
      <point x="459" y="500"/>
      <point x="394" y="438"/>
    </contour>
    <contour>
      <point x="259" y="23" type="line"/>
      <point x="371" y="23"/>
      <point x="464" y="107"/>
      <point x="464" y="229" type="curve" smooth="yes"/>
      <point x="464" y="358"/>
      <point x="349" y="429"/>
      <point x="239" y="429" type="curve"/>
      <point x="239" y="454" type="line"/>
      <point x="394" y="454"/>
      <point x="499" y="358"/>
      <point x="499" y="225" type="curve" smooth="yes"/>
      <point x="499" y="86"/>
      <point x="394" y="-10"/>
      <point x="259" y="-10" type="curve"/>
    </contour>
  </outline>
</glyph>
<glyph name="ae" format="1">
  <advance width="825"/>
  <unicode hex="00E6"/>
  <outline>
    <contour>
      <point x="72" y="133" type="curve" smooth="yes"/>
      <point x="72" y="71"/>
      <point x="113" y="22"/>
      <point x="199" y="22" type="curve" smooth="yes"/>
      <point x="284" y="22"/>
      <point x="351" y="86"/>
      <point x="351" y="172" type="curve"/>
      <point x="373" y="153" type="line"/>
      <point x="373" y="64"/>
      <point x="297" y="-10"/>
      <point x="199" y="-10" type="curve" smooth="yes"/>
      <point x="92" y="-10"/>
      <point x="36" y="50"/>
      <point x="36" y="130" type="curve" smooth="yes"/>
      <point x="36" y="229"/>
      <point x="118" y="283"/>
      <point x="226" y="283" type="curve" smooth="yes"/>
      <point x="308" y="283"/>
      <point x="351" y="245"/>
      <point x="365" y="231" type="curve"/>
      <point x="365" y="208" type="line"/>
      <point x="337" y="231"/>
      <point x="291" y="254"/>
      <point x="227" y="254" type="curve" smooth="yes"/>
      <point x="133" y="254"/>
      <point x="72" y="208"/>
    </contour>
    <contour>
      <point x="94" y="379" type="curve"/>
      <point x="75" y="407" type="line"/>
      <point x="108" y="435"/>
      <point x="159" y="470"/>
      <point x="242" y="470" type="curve" smooth="yes"/>
      <point x="334" y="470"/>
      <point x="378" y="409"/>
      <point x="378" y="330" type="curve" smooth="yes"/>
      <point x="378" y="149" type="line"/>
      <point x="351" y="149" type="line"/>
      <point x="351" y="320" type="line" smooth="yes"/>
      <point x="351" y="383"/>
      <point x="316" y="438"/>
      <point x="240" y="438" type="curve" smooth="yes"/>
      <point x="168" y="438"/>
      <point x="121" y="403"/>
    </contour>
    <contour>
      <point x="378" y="221" type="line"/>
      <point x="378" y="252" type="line"/>
      <point x="775" y="252" type="line"/>
      <point x="786" y="221" type="line"/>
    </contour>
    <contour>
      <point x="750" y="250" type="line" smooth="yes"/>
      <point x="750" y="367"/>
      <point x="667" y="438"/>
      <point x="577" y="438" type="curve" smooth="yes"/>
      <point x="465" y="438"/>
      <point x="388" y="353"/>
      <point x="388" y="244" type="curve"/>
      <point x="387" y="233" type="line"/>
      <point x="387" y="108"/>
      <point x="464" y="23"/>
      <point x="567" y="23" type="curve" smooth="yes"/>
      <point x="666" y="23"/>
      <point x="715" y="69"/>
      <point x="752" y="126" type="curve"/>
      <point x="780" y="107" type="line"/>
      <point x="734" y="37"/>
      <point x="682" y="-10"/>
      <point x="563" y="-10" type="curve" smooth="yes"/>
      <point x="444" y="-10"/>
      <point x="355" y="91"/>
      <point x="355" y="230" type="curve" smooth="yes"/>
      <point x="355" y="247"/>
      <point x="361" y="263"/>
      <point x="364" y="279" type="curve" smooth="yes"/>
      <point x="383" y="392"/>
      <point x="460" y="470"/>
      <point x="583" y="470" type="curve" smooth="yes"/>
      <point x="674" y="470"/>
      <point x="788" y="391"/>
      <point x="788" y="246" type="curve" smooth="yes"/>
      <point x="788" y="238"/>
      <point x="787" y="229"/>
      <point x="786" y="221" type="curve"/>
      <point x="750" y="230" type="line"/>
    </contour>
  </outline>
</glyph>
<glyph name="ccedilla" format="1">
  <advance width="484"/>
  <unicode hex="00E7"/>
  <outline>
    <contour>
      <point x="72" y="230" type="curve" smooth="yes"/>
      <point x="72" y="110"/>
      <point x="159" y="23"/>
      <point x="271" y="23" type="curve" smooth="yes"/>
      <point x="345" y="23"/>
      <point x="407" y="61"/>
      <point x="428" y="93" type="curve"/>
      <point x="428" y="49" type="line"/>
      <point x="402" y="19"/>
      <point x="340" y="-10"/>
      <point x="271" y="-10" type="curve" smooth="yes"/>
      <point x="138" y="-10"/>
      <point x="36" y="91"/>
      <point x="36" y="230" type="curve" smooth="yes"/>
      <point x="36" y="369"/>
      <point x="138" y="470"/>
      <point x="271" y="470" type="curve" smooth="yes"/>
      <point x="340" y="470"/>
      <point x="402" y="440"/>
      <point x="428" y="411" type="curve"/>
      <point x="428" y="367" type="line"/>
      <point x="407" y="399"/>
      <point x="345" y="437"/>
      <point x="271" y="437" type="curve" smooth="yes"/>
      <point x="159" y="437"/>
      <point x="72" y="350"/>
    </contour>
    <contour>
      <point x="271" y="19" type="line"/>
      <point x="300" y="19" type="line"/>
      <point x="242" y="-71" type="line"/>
      <point x="205" y="-98" type="line"/>
    </contour>
    <contour>
      <point x="362" y="-129" type="curve"/>
      <point x="336" y="-129" type="line"/>
      <point x="336" y="-92"/>
      <point x="308" y="-75"/>
      <point x="277" y="-75" type="curve" smooth="yes"/>
      <point x="254" y="-75"/>
      <point x="228" y="-82"/>
      <point x="205" y="-98" type="curve"/>
      <point x="226" y="-76" type="line"/>
      <point x="252" y="-60"/>
      <point x="264" y="-55"/>
      <point x="290" y="-55" type="curve" smooth="yes"/>
      <point x="323" y="-55"/>
      <point x="362" y="-80"/>
    </contour>
    <contour>
      <point x="362" y="-129" type="line"/>
      <point x="362" y="-190"/>
      <point x="311" y="-223"/>
      <point x="256" y="-223" type="curve" smooth="yes"/>
      <point x="219" y="-223"/>
      <point x="194" y="-213"/>
      <point x="166" y="-185" type="curve"/>
      <point x="183" y="-167" type="line"/>
      <point x="208" y="-188"/>
      <point x="225" y="-197"/>
      <point x="256" y="-197" type="curve" smooth="yes"/>
      <point x="298" y="-197"/>
      <point x="336" y="-174"/>
      <point x="336" y="-129" type="curve"/>
    </contour>
  </outline>
</glyph>
<glyph name="edieresis" format="1">
  <advance width="519"/>
  <unicode hex="00EB"/>
  <outline>
    <contour>
      <point x="68" y="221" type="line"/>
      <point x="68" y="252" type="line"/>
      <point x="467" y="252" type="line"/>
      <point x="476" y="221" type="line"/>
    </contour>
    <contour>
      <point x="440" y="252" type="line" smooth="yes"/>
      <point x="440" y="359"/>
      <point x="364" y="438"/>
      <point x="264" y="438" type="curve" smooth="yes"/>
      <point x="166" y="438"/>
      <point x="78" y="365"/>
      <point x="78" y="242" type="curve"/>
      <point x="77" y="231" type="line"/>
      <point x="77" y="109"/>
      <point x="152" y="23"/>
      <point x="261" y="23" type="curve" smooth="yes"/>
      <point x="360" y="23"/>
      <point x="411" y="76"/>
      <point x="442" y="126" type="curve"/>
      <point x="470" y="107" type="line"/>
      <point x="434" y="51"/>
      <point x="381" y="-10"/>
      <point x="258" y="-10" type="curve" smooth="yes"/>
      <point x="133" y="-10"/>
      <point x="41" y="92"/>
      <point x="41" y="231" type="curve" smooth="yes"/>
      <point x="41" y="254"/>
      <point x="43" y="277"/>
      <point x="49" y="298" type="curve" smooth="yes"/>
      <point x="73" y="400"/>
      <point x="155" y="470"/>
      <point x="264" y="470" type="curve" smooth="yes"/>
      <point x="381" y="470"/>
      <point x="478" y="379"/>
      <point x="478" y="247" type="curve" smooth="yes"/>
      <point x="478" y="239"/>
      <point x="477" y="229"/>
      <point x="476" y="221" type="curve"/>
      <point x="440" y="230" type="line"/>
    </contour>
    <contour>
      <point x="337" y="569" type="curve" smooth="yes"/>
      <point x="337" y="584"/>
      <point x="350" y="597"/>
      <point x="364" y="597" type="curve" smooth="yes"/>
      <point x="378" y="597"/>
      <point x="391" y="584"/>
      <point x="391" y="569" type="curve" smooth="yes"/>
      <point x="391" y="554"/>
      <point x="378" y="543"/>
      <point x="364" y="543" type="curve" smooth="yes"/>
      <point x="350" y="543"/>
      <point x="337" y="554"/>
    </contour>
    <contour>
      <point x="137" y="569" type="curve" smooth="yes"/>
      <point x="137" y="584"/>
      <point x="150" y="597"/>
      <point x="164" y="597" type="curve" smooth="yes"/>
      <point x="178" y="597"/>
      <point x="191" y="584"/>
      <point x="191" y="569" type="curve" smooth="yes"/>
      <point x="191" y="554"/>
      <point x="178" y="543"/>
      <point x="164" y="543" type="curve" smooth="yes"/>
      <point x="150" y="543"/>
      <point x="137" y="554"/>
    </contour>
  </outline>
</glyph>
<glyph name="igrave" format="1">
  <advance width="215"/>
  <unicode hex="00EC"/>
  <outline>
    <contour>
      <point x="90" y="460" type="line"/>
      <point x="125" y="460" type="line"/>
      <point x="125" y="0" type="line"/>
      <point x="90" y="0" type="line"/>
    </contour>
    <contour>
      <point x="-49" y="692" type="line"/>
      <point x="-17" y="711" type="line"/>
      <point x="146" y="551" type="line"/>
      <point x="126" y="537" type="line"/>
    </contour>
  </outline>
</glyph>
<glyph name="iacute" format="1">
  <advance width="215"/>
  <unicode hex="00ED"/>
  <outline>
    <contour>
      <point x="90" y="460" type="line"/>
      <point x="125" y="460" type="line"/>
      <point x="125" y="0" type="line"/>
      <point x="90" y="0" type="line"/>
    </contour>
    <contour>
      <point x="264" y="692" type="line"/>
      <point x="89" y="537" type="line"/>
      <point x="70" y="551" type="line"/>
      <point x="232" y="711" type="line"/>
    </contour>
  </outline>
</glyph>
<glyph name="icircumflex" format="1">
  <advance width="215"/>
  <unicode hex="00EE"/>
  <outline>
    <contour>
      <point x="90" y="460" type="line"/>
      <point x="125" y="460" type="line"/>
      <point x="125" y="0" type="line"/>
      <point x="90" y="0" type="line"/>
    </contour>
    <contour>
      <point x="108" y="654" type="line"/>
      <point x="-30" y="534" type="line"/>
      <point x="-52" y="553" type="line"/>
      <point x="108" y="693" type="line"/>
      <point x="268" y="553" type="line"/>
      <point x="245" y="534" type="line"/>
    </contour>
  </outline>
</glyph>
<glyph name="ntilde" format="1">
  <advance width="493"/>
  <unicode hex="00F1"/>
  <outline>
    <contour>
      <point x="117" y="460" type="line"/>
      <point x="117" y="0" type="line"/>
      <point x="81" y="0" type="line"/>
      <point x="81" y="460" type="line"/>
    </contour>
    <contour>
      <point x="376" y="306" type="line" smooth="yes"/>
      <point x="376" y="385"/>
      <point x="343" y="437"/>
      <point x="262" y="437" type="curve" smooth="yes"/>
      <point x="179" y="437"/>
      <point x="117" y="365"/>
      <point x="117" y="280" type="curve"/>
      <point x="100" y="280" type="line"/>
      <point x="100" y="389"/>
      <point x="175" y="470"/>
      <point x="270" y="470" type="curve" smooth="yes"/>
      <point x="365" y="470"/>
      <point x="412" y="409"/>
      <point x="412" y="309" type="curve" smooth="yes"/>
      <point x="412" y="0" type="line"/>
      <point x="376" y="0" type="line"/>
    </contour>
    <contour>
      <point x="107" y="557" type="line"/>
      <point x="111" y="593"/>
      <point x="139" y="623"/>
      <point x="184" y="623" type="curve" smooth="yes"/>
      <point x="243" y="623"/>
      <point x="254" y="576"/>
      <point x="308" y="576" type="curve" smooth="yes"/>
      <point x="333" y="576"/>
      <point x="347" y="592"/>
      <point x="364" y="624" type="curve"/>
      <point x="386" y="607" type="line"/>
      <point x="370" y="570"/>
      <point x="343" y="547"/>
      <point x="306" y="547" type="curve" smooth="yes"/>
      <point x="251" y="547"/>
      <point x="230" y="594"/>
      <point x="185" y="594" type="curve" smooth="yes"/>
      <point x="144" y="594"/>
      <point x="132" y="564"/>
      <point x="132" y="543" type="curve"/>
    </contour>
  </outline>
</glyph>
<glyph name="ocircumflex" format="1">
  <advance width="552"/>
  <unicode hex="00F4"/>
  <outline>
    <contour>
      <point x="41" y="230" type="curve" smooth="yes"/>
      <point x="41" y="369"/>
      <point x="143" y="470"/>
      <point x="276" y="470" type="curve" smooth="yes"/>
      <point x="409" y="470"/>
      <point x="511" y="369"/>
      <point x="511" y="230" type="curve" smooth="yes"/>
      <point x="511" y="91"/>
      <point x="409" y="-10"/>
      <point x="276" y="-10" type="curve" smooth="yes"/>
      <point x="143" y="-10"/>
      <point x="41" y="91"/>
    </contour>
    <contour>
      <point x="77" y="230" type="curve" smooth="yes"/>
      <point x="77" y="110"/>
      <point x="164" y="23"/>
      <point x="276" y="23" type="curve" smooth="yes"/>
      <point x="388" y="23"/>
      <point x="475" y="110"/>
      <point x="475" y="230" type="curve" smooth="yes"/>
      <point x="475" y="350"/>
      <point x="388" y="437"/>
      <point x="276" y="437" type="curve" smooth="yes"/>
      <point x="164" y="437"/>
      <point x="77" y="350"/>
    </contour>
    <contour>
      <point x="276" y="671" type="line"/>
      <point x="139" y="550" type="line"/>
      <point x="116" y="569" type="line"/>
      <point x="276" y="709" type="line"/>
      <point x="436" y="569" type="line"/>
      <point x="414" y="550" type="line"/>
    </contour>
  </outline>
</glyph>
<glyph name="ucircumflex" format="1">
  <advance width="493"/>
  <unicode hex="00FB"/>
  <outline>
    <contour>
      <point x="376" y="0" type="line"/>
      <point x="376" y="460" type="line"/>
      <point x="412" y="460" type="line"/>
      <point x="412" y="0" type="line"/>
    </contour>
    <contour>
      <point x="117" y="161" type="line" smooth="yes"/>
      <point x="117" y="75"/>
      <point x="150" y="23"/>
      <point x="231" y="23" type="curve" smooth="yes"/>
      <point x="314" y="23"/>
      <point x="376" y="95"/>
      <point x="376" y="180" type="curve"/>
      <point x="393" y="180" type="line"/>
      <point x="393" y="71"/>
      <point x="318" y="-10"/>
      <point x="223" y="-10" type="curve" smooth="yes"/>
      <point x="128" y="-10"/>
      <point x="81" y="51"/>
      <point x="81" y="157" type="curve" smooth="yes"/>
      <point x="81" y="460" type="line"/>
      <point x="117" y="460" type="line"/>
    </contour>
    <contour>
      <point x="246" y="664" type="line"/>
      <point x="109" y="544" type="line"/>
      <point x="86" y="563" type="line"/>
      <point x="246" y="703" type="line"/>
      <point x="406" y="563" type="line"/>
      <point x="384" y="544" type="line"/>
    </contour>
  </outline>
</glyph>
<glyph name="udieresis" format="1">
  <advance width="493"/>
  <unicode hex="00FC"/>
  <outline>
    <contour>
      <point x="376" y="0" type="line"/>
      <point x="376" y="460" type="line"/>
      <point x="412" y="460" type="line"/>
      <point x="412" y="0" type="line"/>
    </contour>
    <contour>
      <point x="117" y="161" type="line" smooth="yes"/>
      <point x="117" y="75"/>
      <point x="150" y="23"/>
      <point x="231" y="23" type="curve" smooth="yes"/>
      <point x="314" y="23"/>
      <point x="376" y="95"/>
      <point x="376" y="180" type="curve"/>
      <point x="393" y="180" type="line"/>
      <point x="393" y="71"/>
      <point x="318" y="-10"/>
      <point x="223" y="-10" type="curve" smooth="yes"/>
      <point x="128" y="-10"/>
      <point x="81" y="51"/>
      <point x="81" y="157" type="curve" smooth="yes"/>
      <point x="81" y="460" type="line"/>
      <point x="117" y="460" type="line"/>
    </contour>
    <contour>
      <point x="307" y="577" type="curve" smooth="yes"/>
      <point x="307" y="592"/>
      <point x="319" y="604"/>
      <point x="333" y="604" type="curve" smooth="yes"/>
      <point x="347" y="604"/>
      <point x="361" y="592"/>
      <point x="361" y="577" type="curve" smooth="yes"/>
      <point x="361" y="562"/>
      <point x="347" y="550"/>
      <point x="333" y="550" type="curve" smooth="yes"/>
      <point x="319" y="550"/>
      <point x="307" y="562"/>
    </contour>
    <contour>
      <point x="132" y="577" type="curve" smooth="yes"/>
      <point x="132" y="592"/>
      <point x="145" y="604"/>
      <point x="159" y="604" type="curve" smooth="yes"/>
      <point x="173" y="604"/>
      <point x="186" y="592"/>
      <point x="186" y="577" type="curve" smooth="yes"/>
      <point x="186" y="562"/>
      <point x="173" y="550"/>
      <point x="159" y="550" type="curve" smooth="yes"/>
      <point x="145" y="550"/>
      <point x="132" y="562"/>
    </contour>
  </outline>
</glyph>
<glyph name="Abreve" format="1">
  <advance width="621"/>
  <unicode hex="0102"/>
  <outline>
    <contour>
      <point x="134" y="250" type="line"/>
      <point x="145" y="285" type="line"/>
      <point x="477" y="285" type="line"/>
      <point x="488" y="250" type="line"/>
    </contour>
    <contour>
      <point x="311" y="635" type="line"/>
      <point x="164" y="272" type="line"/>
      <point x="160" y="263" type="line"/>
      <point x="53" y="0" type="line"/>
      <point x="11" y="0" type="line"/>
      <point x="311" y="722" type="line"/>
      <point x="610" y="0" type="line"/>
      <point x="568" y="0" type="line"/>
      <point x="463" y="261" type="line"/>
      <point x="460" y="270" type="line"/>
    </contour>
    <contour>
      <point x="153" y="929" type="curve"/>
      <point x="185" y="929" type="line"/>
      <point x="185" y="877"/>
      <point x="227" y="818"/>
      <point x="311" y="818" type="curve" smooth="yes"/>
      <point x="395" y="818"/>
      <point x="437" y="877"/>
      <point x="437" y="929" type="curve"/>
      <point x="469" y="929" type="line"/>
      <point x="469" y="860"/>
      <point x="416" y="789"/>
      <point x="311" y="789" type="curve" smooth="yes"/>
      <point x="206" y="789"/>
      <point x="153" y="860"/>
    </contour>
  </outline>
</glyph>
<glyph name="Aogonek" format="1">
  <advance width="621"/>
  <unicode hex="0104"/>
  <outline>
    <contour>
      <point x="134" y="250" type="line"/>
      <point x="145" y="285" type="line"/>
      <point x="477" y="285" type="line"/>
      <point x="488" y="250" type="line"/>
    </contour>
    <contour>
      <point x="311" y="635" type="line"/>
      <point x="164" y="272" type="line"/>
      <point x="160" y="263" type="line"/>
      <point x="53" y="0" type="line"/>
      <point x="11" y="0" type="line"/>
      <point x="311" y="722" type="line"/>
      <point x="610" y="0" type="line"/>
      <point x="568" y="0" type="line"/>
      <point x="463" y="261" type="line"/>
      <point x="460" y="270" type="line"/>
    </contour>
    <contour>
      <point x="630" y="-157" type="curve"/>
      <point x="646" y="-180" type="line"/>
      <point x="631" y="-200"/>
      <point x="595" y="-220"/>
      <point x="552" y="-220" type="curve" smooth="yes"/>
      <point x="481" y="-220"/>
      <point x="442" y="-186"/>
      <point x="442" y="-133" type="curve"/>
      <point x="477" y="-126" type="line"/>
      <point x="477" y="-168"/>
      <point x="511" y="-188"/>
      <point x="554" y="-188" type="curve" smooth="yes"/>
      <point x="589" y="-188"/>
      <point x="616" y="-173"/>
    </contour>
    <contour>
      <point x="477" y="-126" type="curve"/>
      <point x="442" y="-133" type="line"/>
      <point x="442" y="-68"/>
      <point x="518" y="-21"/>
      <point x="588" y="15" type="curve"/>
      <point x="607" y="0" type="line"/>
      <point x="545" y="-28"/>
      <point x="477" y="-76"/>
    </contour>
  </outline>
</glyph>
<glyph name="aogonek" format="1">
  <advance width="453"/>
  <unicode hex="0105"/>
  <outline>
    <contour>
      <point x="72" y="135" type="curve" smooth="yes"/>
      <point x="72" y="54"/>
      <point x="130" y="22"/>
      <point x="198" y="22" type="curve" smooth="yes"/>
      <point x="284" y="22"/>
      <point x="351" y="81"/>
      <point x="351" y="167" type="curve"/>
      <point x="361" y="149" type="line"/>
      <point x="361" y="60"/>
      <point x="291" y="-10"/>
      <point x="191" y="-10" type="curve" smooth="yes"/>
      <point x="109" y="-10"/>
      <point x="36" y="34"/>
      <point x="36" y="131" type="curve" smooth="yes"/>
      <point x="36" y="232"/>
      <point x="125" y="283"/>
      <point x="223" y="283" type="curve" smooth="yes"/>
      <point x="305" y="283"/>
      <point x="346" y="248"/>
      <point x="365" y="231" type="curve"/>
      <point x="365" y="208" type="line"/>
      <point x="333" y="234"/>
      <point x="288" y="254"/>
      <point x="224" y="254" type="curve" smooth="yes"/>
      <point x="142" y="254"/>
      <point x="72" y="214"/>
    </contour>
    <contour>
      <point x="94" y="379" type="curve"/>
      <point x="75" y="407" type="line"/>
      <point x="109" y="436"/>
      <point x="161" y="470"/>
      <point x="238" y="470" type="curve" smooth="yes"/>
      <point x="333" y="470"/>
      <point x="387" y="413"/>
      <point x="387" y="324" type="curve" smooth="yes"/>
      <point x="387" y="0" type="line"/>
      <point x="351" y="0" type="line"/>
      <point x="351" y="324" type="line" smooth="yes"/>
      <point x="351" y="396"/>
      <point x="309" y="438"/>
      <point x="238" y="438" type="curve" smooth="yes"/>
      <point x="172" y="438"/>
      <point x="126" y="407"/>
    </contour>
    <contour>
      <point x="410" y="-157" type="curve"/>
      <point x="426" y="-180" type="line"/>
      <point x="411" y="-200"/>
      <point x="375" y="-220"/>
      <point x="332" y="-220" type="curve" smooth="yes"/>
      <point x="261" y="-220"/>
      <point x="222" y="-186"/>
      <point x="222" y="-133" type="curve"/>
      <point x="257" y="-126" type="line"/>
      <point x="257" y="-168"/>
      <point x="291" y="-188"/>
      <point x="334" y="-188" type="curve" smooth="yes"/>
      <point x="369" y="-188"/>
      <point x="396" y="-173"/>
    </contour>
    <contour>
      <point x="257" y="-126" type="curve"/>
      <point x="222" y="-133" type="line"/>
      <point x="222" y="-68"/>
      <point x="298" y="-21"/>
      <point x="368" y="15" type="curve"/>
      <point x="387" y="0" type="line"/>
      <point x="325" y="-28"/>
      <point x="257" y="-76"/>
    </contour>
  </outline>
</glyph>
<glyph name="cdotaccent" format="1">
  <advance width="484"/>
  <unicode hex="010B"/>
  <outline>
    <contour>
      <point x="72" y="230" type="curve" smooth="yes"/>
      <point x="72" y="110"/>
      <point x="159" y="23"/>
      <point x="271" y="23" type="curve" smooth="yes"/>
      <point x="345" y="23"/>
      <point x="407" y="61"/>
      <point x="428" y="93" type="curve"/>
      <point x="428" y="49" type="line"/>
      <point x="402" y="19"/>
      <point x="340" y="-10"/>
      <point x="271" y="-10" type="curve" smooth="yes"/>
      <point x="138" y="-10"/>
      <point x="36" y="91"/>
      <point x="36" y="230" type="curve" smooth="yes"/>
      <point x="36" y="369"/>
      <point x="138" y="470"/>
      <point x="271" y="470" type="curve" smooth="yes"/>
      <point x="340" y="470"/>
      <point x="402" y="440"/>
      <point x="428" y="411" type="curve"/>
      <point x="428" y="367" type="line"/>
      <point x="407" y="399"/>
      <point x="345" y="437"/>
      <point x="271" y="437" type="curve" smooth="yes"/>
      <point x="159" y="437"/>
      <point x="72" y="350"/>
    </contour>
    <contour>
      <point x="245" y="563" type="curve" smooth="yes"/>
      <point x="245" y="578"/>
      <point x="257" y="590"/>
      <point x="271" y="590" type="curve" smooth="yes"/>
      <point x="285" y="590"/>
      <point x="298" y="578"/>
      <point x="298" y="563" type="curve" smooth="yes"/>
      <point x="298" y="548"/>
      <point x="285" y="536"/>
      <point x="271" y="536" type="curve" smooth="yes"/>
      <point x="257" y="536"/>
      <point x="245" y="548"/>
    </contour>
  </outline>
</glyph>
<glyph name="ccaron" format="1">
  <advance width="484"/>
  <unicode hex="010D"/>
  <outline>
    <contour>
      <point x="72" y="230" type="curve" smooth="yes"/>
      <point x="72" y="110"/>
      <point x="159" y="23"/>
      <point x="271" y="23" type="curve" smooth="yes"/>
      <point x="345" y="23"/>
      <point x="407" y="61"/>
      <point x="428" y="93" type="curve"/>
      <point x="428" y="49" type="line"/>
      <point x="402" y="19"/>
      <point x="340" y="-10"/>
      <point x="271" y="-10" type="curve" smooth="yes"/>
      <point x="138" y="-10"/>
      <point x="36" y="91"/>
      <point x="36" y="230" type="curve" smooth="yes"/>
      <point x="36" y="369"/>
      <point x="138" y="470"/>
      <point x="271" y="470" type="curve" smooth="yes"/>
      <point x="340" y="470"/>
      <point x="402" y="440"/>
      <point x="428" y="411" type="curve"/>
      <point x="428" y="367" type="line"/>
      <point x="407" y="399"/>
      <point x="345" y="437"/>
      <point x="271" y="437" type="curve" smooth="yes"/>
      <point x="159" y="437"/>
      <point x="72" y="350"/>
    </contour>
    <contour>
      <point x="271" y="581" type="line"/>
      <point x="408" y="702" type="line"/>
      <point x="431" y="683" type="line"/>
      <point x="271" y="543" type="line"/>
      <point x="111" y="683" type="line"/>
      <point x="134" y="702" type="line"/>
    </contour>
  </outline>
</glyph>
<glyph name="Dcaron" format="1">
  <advance width="651"/>
  <unicode hex="010E"/>
  <outline>
    <contour>
      <point x="106" y="663" type="line"/>
      <point x="106" y="700" type="line"/>
      <point x="264" y="700" type="line" smooth="yes"/>
      <point x="468" y="700"/>
      <point x="605" y="559"/>
      <point x="605" y="350" type="curve"/>
      <point x="567" y="350" type="line"/>
      <point x="567" y="539"/>
      <point x="449" y="663"/>
      <point x="264" y="663" type="curve" smooth="yes"/>
    </contour>
    <contour>
      <point x="264" y="0" type="curve" smooth="yes"/>
      <point x="106" y="0" type="line"/>
      <point x="106" y="37" type="line"/>
      <point x="264" y="37" type="line" smooth="yes"/>
      <point x="449" y="37"/>
      <point x="567" y="161"/>
      <point x="567" y="350" type="curve"/>
      <point x="605" y="350" type="line"/>
      <point x="605" y="141"/>
      <point x="468" y="0"/>
    </contour>
    <contour>
      <point x="86" y="700" type="line"/>
      <point x="124" y="700" type="line"/>
      <point x="124" y="0" type="line"/>
      <point x="86" y="0" type="line"/>
    </contour>
    <contour>
      <point x="267" y="813" type="line"/>
      <point x="404" y="934" type="line"/>
      <point x="427" y="915" type="line"/>
      <point x="267" y="775" type="line"/>
      <point x="107" y="915" type="line"/>
      <point x="130" y="934" type="line"/>
    </contour>
  </outline>
</glyph>
<glyph name="Ebreve" format="1">
  <advance width="524"/>
  <unicode hex="0114"/>
  <outline>
    <contour>
      <point x="105" y="0" type="line"/>
      <point x="105" y="35" type="line"/>
      <point x="448" y="35" type="line"/>
      <point x="448" y="0" type="line"/>
    </contour>
    <contour>
      <point x="105" y="665" type="line"/>
      <point x="105" y="700" type="line"/>
      <point x="448" y="700" type="line"/>
      <point x="448" y="665" type="line"/>
    </contour>
    <contour>
      <point x="105" y="368" type="line"/>
      <point x="105" y="404" type="line"/>
      <point x="428" y="404" type="line"/>
      <point x="428" y="368" type="line"/>
    </contour>
    <contour>
      <point x="86" y="700" type="line"/>
      <point x="124" y="700" type="line"/>
      <point x="124" y="0" type="line"/>
      <point x="86" y="0" type="line"/>
    </contour>
    <contour>
      <point x="116" y="909" type="curve"/>
      <point x="148" y="909" type="line"/>
      <point x="148" y="857"/>
      <point x="190" y="798"/>
      <point x="274" y="798" type="curve" smooth="yes"/>
      <point x="358" y="798"/>
      <point x="399" y="857"/>
      <point x="399" y="909" type="curve"/>
      <point x="432" y="909" type="line"/>
      <point x="432" y="840"/>
      <point x="379" y="769"/>
      <point x="274" y="769" type="curve" smooth="yes"/>
      <point x="169" y="769"/>
      <point x="116" y="840"/>
    </contour>
  </outline>
</glyph>
<glyph name="ebreve" format="1">
  <advance width="519"/>
  <unicode hex="0115"/>
  <outline>
    <contour>
      <point x="68" y="221" type="line"/>
      <point x="68" y="252" type="line"/>
      <point x="467" y="252" type="line"/>
      <point x="476" y="221" type="line"/>
    </contour>
    <contour>
      <point x="440" y="252" type="line" smooth="yes"/>
      <point x="440" y="359"/>
      <point x="364" y="438"/>
      <point x="264" y="438" type="curve" smooth="yes"/>
      <point x="166" y="438"/>
      <point x="78" y="365"/>
      <point x="78" y="242" type="curve"/>
      <point x="77" y="231" type="line"/>
      <point x="77" y="109"/>
      <point x="152" y="23"/>
      <point x="261" y="23" type="curve" smooth="yes"/>
      <point x="360" y="23"/>
      <point x="411" y="76"/>
      <point x="442" y="126" type="curve"/>
      <point x="470" y="107" type="line"/>
      <point x="434" y="51"/>
      <point x="381" y="-10"/>
      <point x="258" y="-10" type="curve" smooth="yes"/>
      <point x="133" y="-10"/>
      <point x="41" y="92"/>
      <point x="41" y="231" type="curve" smooth="yes"/>
      <point x="41" y="254"/>
      <point x="43" y="277"/>
      <point x="49" y="298" type="curve" smooth="yes"/>
      <point x="73" y="400"/>
      <point x="155" y="470"/>
      <point x="264" y="470" type="curve" smooth="yes"/>
      <point x="381" y="470"/>
      <point x="478" y="379"/>
      <point x="478" y="247" type="curve" smooth="yes"/>
      <point x="478" y="239"/>
      <point x="477" y="229"/>
      <point x="476" y="221" type="curve"/>
      <point x="440" y="230" type="line"/>
    </contour>
    <contour>
      <point x="106" y="683" type="curve"/>
      <point x="138" y="683" type="line"/>
      <point x="138" y="631"/>
      <point x="180" y="573"/>
      <point x="264" y="573" type="curve" smooth="yes"/>
      <point x="348" y="573"/>
      <point x="390" y="631"/>
      <point x="390" y="683" type="curve"/>
      <point x="422" y="683" type="line"/>
      <point x="422" y="614"/>
      <point x="369" y="543"/>
      <point x="264" y="543" type="curve" smooth="yes"/>
      <point x="159" y="543"/>
      <point x="106" y="614"/>
    </contour>
  </outline>
</glyph>
<glyph name="Eogonek" format="1">
  <advance width="524"/>
  <unicode hex="0118"/>
  <outline>
    <contour>
      <point x="105" y="0" type="line"/>
      <point x="105" y="35" type="line"/>
      <point x="448" y="35" type="line"/>
      <point x="448" y="0" type="line"/>
    </contour>
    <contour>
      <point x="105" y="665" type="line"/>
      <point x="105" y="700" type="line"/>
      <point x="448" y="700" type="line"/>
      <point x="448" y="665" type="line"/>
    </contour>
    <contour>
      <point x="105" y="368" type="line"/>
      <point x="105" y="404" type="line"/>
      <point x="428" y="404" type="line"/>
      <point x="428" y="368" type="line"/>
    </contour>
    <contour>
      <point x="86" y="700" type="line"/>
      <point x="124" y="700" type="line"/>
      <point x="124" y="0" type="line"/>
      <point x="86" y="0" type="line"/>
    </contour>
    <contour>
      <point x="469" y="-158" type="curve"/>
      <point x="485" y="-181" type="line"/>
      <point x="470" y="-201"/>
      <point x="434" y="-221"/>
      <point x="391" y="-221" type="curve" smooth="yes"/>
      <point x="320" y="-221"/>
      <point x="281" y="-186"/>
      <point x="281" y="-133" type="curve"/>
      <point x="316" y="-126" type="line"/>
      <point x="316" y="-168"/>
      <point x="350" y="-189"/>
      <point x="393" y="-189" type="curve" smooth="yes"/>
      <point x="428" y="-189"/>
      <point x="455" y="-174"/>
    </contour>
    <contour>
      <point x="316" y="-126" type="curve"/>
      <point x="281" y="-133" type="line"/>
      <point x="281" y="-68"/>
      <point x="356" y="-21"/>
      <point x="426" y="15" type="curve"/>
      <point x="446" y="-1" type="line"/>
      <point x="384" y="-29"/>
      <point x="316" y="-76"/>
    </contour>
  </outline>
</glyph>
<glyph name="Ecaron" format="1">
  <advance width="524"/>
  <unicode hex="011A"/>
  <outline>
    <contour>
      <point x="105" y="0" type="line"/>
      <point x="105" y="35" type="line"/>
      <point x="448" y="35" type="line"/>
      <point x="448" y="0" type="line"/>
    </contour>
    <contour>
      <point x="105" y="665" type="line"/>
      <point x="105" y="700" type="line"/>
      <point x="448" y="700" type="line"/>
      <point x="448" y="665" type="line"/>
    </contour>
    <contour>
      <point x="105" y="368" type="line"/>
      <point x="105" y="404" type="line"/>
      <point x="428" y="404" type="line"/>
      <point x="428" y="368" type="line"/>
    </contour>
    <contour>
      <point x="86" y="700" type="line"/>
      <point x="124" y="700" type="line"/>
      <point x="124" y="0" type="line"/>
      <point x="86" y="0" type="line"/>
    </contour>
    <contour>
      <point x="267" y="807" type="line"/>
      <point x="404" y="928" type="line"/>
      <point x="427" y="909" type="line"/>
      <point x="267" y="769" type="line"/>
      <point x="107" y="909" type="line"/>
      <point x="130" y="928" type="line"/>
    </contour>
  </outline>
</glyph>
<glyph name="Gbreve" format="1">
  <advance width="768"/>
  <unicode hex="011E"/>
  <outline>
    <contour>
      <point x="415" y="310" type="line"/>
      <point x="415" y="345" type="line"/>
      <point x="717" y="345" type="line"/>
      <point x="691" y="310" type="line"/>
    </contour>
    <contour>
      <point x="717" y="345" type="line"/>
      <point x="717" y="157"/>
      <point x="593" y="-9"/>
      <point x="392" y="-9" type="curve" smooth="yes"/>
      <point x="194" y="-9"/>
      <point x="46" y="141"/>
      <point x="46" y="350" type="curve" smooth="yes"/>
      <point x="46" y="559"/>
      <point x="194" y="709"/>
      <point x="392" y="709" type="curve" smooth="yes"/>
      <point x="521" y="709"/>
      <point x="615" y="649"/>
      <point x="675" y="558" type="curve"/>
      <point x="647" y="534" type="line"/>
      <point x="599" y="614"/>
      <point x="509" y="671"/>
      <point x="392" y="671" type="curve" smooth="yes"/>
      <point x="217" y="671"/>
      <point x="86" y="539"/>
      <point x="86" y="350" type="curve" smooth="yes"/>
      <point x="86" y="163"/>
      <point x="216" y="29"/>
      <point x="392" y="29" type="curve" smooth="yes"/>
      <point x="573" y="29"/>
      <point x="680" y="178"/>
      <point x="680" y="342" type="curve"/>
    </contour>
    <contour>
      <point x="234" y="921" type="curve"/>
      <point x="266" y="921" type="line"/>
      <point x="266" y="869"/>
      <point x="308" y="811"/>
      <point x="392" y="811" type="curve" smooth="yes"/>
      <point x="476" y="811"/>
      <point x="518" y="869"/>
      <point x="518" y="921" type="curve"/>
      <point x="550" y="921" type="line"/>
      <point x="550" y="852"/>
      <point x="497" y="781"/>
      <point x="392" y="781" type="curve" smooth="yes"/>
      <point x="287" y="781"/>
      <point x="234" y="852"/>
    </contour>
  </outline>
</glyph>
<glyph name="Hcircumflex" format="1">
  <advance width="671"/>
  <unicode hex="0124"/>
  <outline>
    <contour>
      <point x="105" y="364" type="line"/>
      <point x="105" y="399" type="line"/>
      <point x="572" y="399" type="line"/>
      <point x="572" y="364" type="line"/>
    </contour>
    <contour>
      <point x="547" y="700" type="line"/>
      <point x="585" y="700" type="line"/>
      <point x="585" y="0" type="line"/>
      <point x="547" y="0" type="line"/>
    </contour>
    <contour>
      <point x="86" y="700" type="line"/>
      <point x="124" y="700" type="line"/>
      <point x="124" y="0" type="line"/>
      <point x="86" y="0" type="line"/>
    </contour>
    <contour>
      <point x="336" y="889" type="line"/>
      <point x="198" y="769" type="line"/>
      <point x="176" y="788" type="line"/>
      <point x="336" y="928" type="line"/>
      <point x="496" y="788" type="line"/>
      <point x="473" y="769" type="line"/>
    </contour>
  </outline>
</glyph>
<glyph name="Imacron" format="1">
  <advance width="203"/>
  <unicode hex="012A"/>
  <outline>
    <contour>
      <point x="83" y="700" type="line"/>
      <point x="120" y="700" type="line"/>
      <point x="120" y="0" type="line"/>
      <point x="83" y="0" type="line"/>
    </contour>
    <contour>
      <point x="-52" y="812" type="line"/>
      <point x="-52" y="845" type="line"/>
      <point x="298" y="845" type="line"/>
      <point x="298" y="812" type="line"/>
    </contour>
  </outline>
</glyph>
<glyph name="Ibreve" format="1">
  <advance width="203"/>
  <unicode hex="012C"/>
  <outline>
    <contour>
      <point x="83" y="700" type="line"/>
      <point x="120" y="700" type="line"/>
      <point x="120" y="0" type="line"/>
      <point x="83" y="0" type="line"/>
    </contour>
    <contour>
      <point x="-57" y="910" type="curve"/>
      <point x="-25" y="910" type="line"/>
      <point x="-25" y="858"/>
      <point x="17" y="800"/>
      <point x="101" y="800" type="curve" smooth="yes"/>
      <point x="185" y="800"/>
      <point x="226" y="858"/>
      <point x="226" y="910" type="curve"/>
      <point x="259" y="910" type="line"/>
      <point x="259" y="841"/>
      <point x="206" y="770"/>
      <point x="101" y="770" type="curve" smooth="yes"/>
      <point x="-4" y="770"/>
      <point x="-57" y="841"/>
    </contour>
  </outline>
</glyph>
<glyph name="Iogonek" format="1">
  <advance width="203"/>
  <unicode hex="012E"/>
  <outline>
    <contour>
      <point x="83" y="700" type="line"/>
      <point x="120" y="700" type="line"/>
      <point x="120" y="0" type="line"/>
      <point x="83" y="0" type="line"/>
    </contour>
    <contour>
      <point x="143" y="-163" type="curve"/>
      <point x="160" y="-186" type="line"/>
      <point x="145" y="-206"/>
      <point x="109" y="-226"/>
      <point x="66" y="-226" type="curve" smooth="yes"/>
      <point x="-5" y="-226"/>
      <point x="-45" y="-192"/>
      <point x="-45" y="-139" type="curve"/>
      <point x="-9" y="-132" type="line"/>
      <point x="-9" y="-174"/>
      <point x="24" y="-194"/>
      <point x="67" y="-194" type="curve" smooth="yes"/>
      <point x="102" y="-194"/>
      <point x="129" y="-179"/>
    </contour>
    <contour>
      <point x="-9" y="-132" type="curve"/>
      <point x="-45" y="-139" type="line"/>
      <point x="-45" y="-74"/>
      <point x="31" y="-27"/>
      <point x="101" y="9" type="curve"/>
      <point x="120" y="-6" type="line"/>
      <point x="58" y="-34"/>
      <point x="-9" y="-82"/>
    </contour>
  </outline>
</glyph>
<glyph name="iogonek" format="1">
  <advance width="215"/>
  <unicode hex="012F"/>
  <outline>
    <contour>
      <point x="81" y="679" type="curve" smooth="yes"/>
      <point x="81" y="693"/>
      <point x="93" y="705"/>
      <point x="108" y="705" type="curve" smooth="yes"/>
      <point x="123" y="705"/>
      <point x="134" y="693"/>
      <point x="134" y="679" type="curve" smooth="yes"/>
      <point x="134" y="665"/>
      <point x="123" y="653"/>
      <point x="108" y="653" type="curve" smooth="yes"/>
      <point x="93" y="653"/>
      <point x="81" y="665"/>
    </contour>
    <contour>
      <point x="90" y="460" type="line"/>
      <point x="125" y="460" type="line"/>
      <point x="125" y="0" type="line"/>
      <point x="90" y="0" type="line"/>
    </contour>
    <contour>
      <point x="149" y="-163" type="curve"/>
      <point x="166" y="-186" type="line"/>
      <point x="151" y="-206"/>
      <point x="114" y="-226"/>
      <point x="71" y="-226" type="curve" smooth="yes"/>
      <point x="0" y="-226"/>
      <point x="-39" y="-192"/>
      <point x="-39" y="-139" type="curve"/>
      <point x="-4" y="-132" type="line"/>
      <point x="-4" y="-174"/>
      <point x="30" y="-194"/>
      <point x="73" y="-194" type="curve" smooth="yes"/>
      <point x="108" y="-194"/>
      <point x="135" y="-179"/>
    </contour>
    <contour>
      <point x="-4" y="-132" type="curve"/>
      <point x="-39" y="-139" type="line"/>
      <point x="-39" y="-74"/>
      <point x="36" y="-27"/>
      <point x="106" y="9" type="curve"/>
      <point x="126" y="-6" type="line"/>
      <point x="64" y="-34"/>
      <point x="-4" y="-82"/>
    </contour>
  </outline>
</glyph>
<glyph name="ij" format="1">
  <advance width="510"/>
  <unicode hex="0133"/>
  <outline>
    <contour>
      <point x="331" y="679" type="curve" smooth="yes"/>
      <point x="331" y="693"/>
      <point x="343" y="705"/>
      <point x="358" y="705" type="curve" smooth="yes"/>
      <point x="373" y="705"/>
      <point x="384" y="693"/>
      <point x="384" y="679" type="curve" smooth="yes"/>
      <point x="384" y="665"/>
      <point x="373" y="653"/>
      <point x="358" y="653" type="curve" smooth="yes"/>
      <point x="343" y="653"/>
      <point x="331" y="665"/>
    </contour>
    <contour>
      <point x="192" y="-146" type="line"/>
      <point x="207" y="-167"/>
      <point x="231" y="-185"/>
      <point x="260" y="-185" type="curve" smooth="yes"/>
      <point x="322" y="-185"/>
      <point x="340" y="-131"/>
      <point x="340" y="-71" type="curve" smooth="yes"/>
      <point x="340" y="460" type="line"/>
      <point x="375" y="460" type="line"/>
      <point x="375" y="-74" type="line" smooth="yes"/>
      <point x="375" y="-157"/>
      <point x="342" y="-220"/>
      <point x="258" y="-220" type="curve" smooth="yes"/>
      <point x="215" y="-220"/>
      <point x="187" y="-195"/>
      <point x="172" y="-175" type="curve"/>
    </contour>
    <contour>
      <point x="81" y="679" type="curve" smooth="yes"/>
      <point x="81" y="693"/>
      <point x="93" y="705"/>
      <point x="108" y="705" type="curve" smooth="yes"/>
      <point x="123" y="705"/>
      <point x="134" y="693"/>
      <point x="134" y="679" type="curve" smooth="yes"/>
      <point x="134" y="665"/>
      <point x="123" y="653"/>
      <point x="108" y="653" type="curve" smooth="yes"/>
      <point x="93" y="653"/>
      <point x="81" y="665"/>
    </contour>
    <contour>
      <point x="90" y="460" type="line"/>
      <point x="125" y="460" type="line"/>
      <point x="125" y="0" type="line"/>
      <point x="90" y="0" type="line"/>
    </contour>
  </outline>
</glyph>
<glyph name="Jcircumflex" format="1">
  <advance width="212"/>
  <unicode hex="0134"/>
  <outline>
    <contour>
      <point x="-105" y="-139" type="line"/>
      <point x="-85" y="-162"/>
      <point x="-49" y="-184"/>
      <point x="-7" y="-184" type="curve" smooth="yes"/>
      <point x="61" y="-184"/>
      <point x="90" y="-148"/>
      <point x="90" y="-50" type="curve" smooth="yes"/>
      <point x="90" y="700" type="line"/>
      <point x="126" y="700" type="line"/>
      <point x="126" y="-60" type="line" smooth="yes"/>
      <point x="126" y="-169"/>
      <point x="86" y="-220"/>
      <point x="-8" y="-220" type="curve" smooth="yes"/>
      <point x="-61" y="-220"/>
      <point x="-111" y="-187"/>
      <point x="-126" y="-167" type="curve"/>
    </contour>
    <contour>
      <point x="120" y="912" type="line"/>
      <point x="-17" y="791" type="line"/>
      <point x="-40" y="810" type="line"/>
      <point x="120" y="950" type="line"/>
      <point x="280" y="810" type="line"/>
      <point x="257" y="791" type="line"/>
    </contour>
  </outline>
</glyph>
<glyph name="uni0137" format="1">
  <advance width="396"/>
  <unicode hex="0137"/>
  <outline>
    <contour>
      <point x="76" y="780" type="line"/>
      <point x="112" y="780" type="line"/>
      <point x="112" y="0" type="line"/>
      <point x="76" y="0" type="line"/>
    </contour>
    <contour>
      <point x="325" y="460" type="line"/>
      <point x="372" y="460" type="line"/>
      <point x="145" y="270" type="line"/>
      <point x="390" y="0" type="line"/>
      <point x="345" y="0" type="line"/>
      <point x="99" y="270" type="line"/>
    </contour>
    <contour>
      <point x="276" y="-70" type="line"/>
      <point x="312" y="-84" type="line"/>
      <point x="202" y="-334" type="line"/>
      <point x="177" y="-325" type="line"/>
    </contour>
  </outline>
</glyph>
<glyph name="uni013B" format="1">
  <advance width="437"/>
  <unicode hex="013B"/>
  <outline>
    <contour>
      <point x="108" y="0" type="line"/>
      <point x="108" y="35" type="line"/>
      <point x="421" y="35" type="line"/>
      <point x="421" y="0" type="line"/>
    </contour>
    <contour>
      <point x="86" y="700" type="line"/>
      <point x="123" y="700" type="line"/>
      <point x="123" y="0" type="line"/>
      <point x="86" y="0" type="line"/>
    </contour>
    <contour>
      <point x="272" y="-60" type="line"/>
      <point x="308" y="-74" type="line"/>
      <point x="198" y="-324" type="line"/>
      <point x="173" y="-315" type="line"/>
    </contour>
  </outline>
</glyph>
<glyph name="lcaron" format="1">
  <advance width="230"/>
  <unicode hex="013E"/>
  <outline>
    <contour>
      <point x="81" y="780" type="line"/>
      <point x="117" y="780" type="line"/>
      <point x="117" y="0" type="line"/>
      <point x="81" y="0" type="line"/>
    </contour>
    <contour>
      <point x="310" y="770" type="line"/>
      <point x="346" y="756" type="line"/>
      <point x="236" y="506" type="line"/>
      <point x="211" y="515" type="line"/>
    </contour>
  </outline>
</glyph>
<glyph name="Obreve" format="1">
  <advance width="779"/>
  <unicode hex="014E"/>
  <outline>
    <contour>
      <point x="86" y="350" type="curve" smooth="yes"/>
      <point x="86" y="165"/>
      <point x="213" y="29"/>
      <point x="390" y="29" type="curve" smooth="yes"/>
      <point x="567" y="29"/>
      <point x="694" y="165"/>
      <point x="694" y="350" type="curve" smooth="yes"/>
      <point x="694" y="535"/>
      <point x="567" y="671"/>
      <point x="390" y="671" type="curve" smooth="yes"/>
      <point x="213" y="671"/>
      <point x="86" y="535"/>
    </contour>
    <contour>
      <point x="46" y="350" type="curve" smooth="yes"/>
      <point x="46" y="557"/>
      <point x="192" y="709"/>
      <point x="390" y="709" type="curve" smooth="yes"/>
      <point x="588" y="709"/>
      <point x="734" y="557"/>
      <point x="734" y="350" type="curve" smooth="yes"/>
      <point x="734" y="143"/>
      <point x="588" y="-9"/>
      <point x="390" y="-9" type="curve" smooth="yes"/>
      <point x="192" y="-9"/>
      <point x="46" y="143"/>
    </contour>
    <contour>
      <point x="232" y="909" type="curve"/>
      <point x="264" y="909" type="line"/>
      <point x="264" y="857"/>
      <point x="306" y="798"/>
      <point x="390" y="798" type="curve" smooth="yes"/>
      <point x="474" y="798"/>
      <point x="516" y="857"/>
      <point x="516" y="909" type="curve"/>
      <point x="548" y="909" type="line"/>
      <point x="548" y="840"/>
      <point x="495" y="769"/>
      <point x="390" y="769" type="curve" smooth="yes"/>
      <point x="285" y="769"/>
      <point x="232" y="840"/>
    </contour>
  </outline>
</glyph>
<glyph name="uni0157" format="1">
  <advance width="308"/>
  <unicode hex="0157"/>
  <outline>
    <contour>
      <point x="117" y="460" type="line"/>
      <point x="117" y="0" type="line"/>
      <point x="81" y="0" type="line"/>
      <point x="81" y="460" type="line"/>
    </contour>
    <contour>
      <point x="278" y="415" type="line"/>
      <point x="259" y="428"/>
      <point x="241" y="437"/>
      <point x="219" y="437" type="curve" smooth="yes"/>
      <point x="146" y="437"/>
      <point x="117" y="365"/>
      <point x="117" y="280" type="curve"/>
      <point x="100" y="280" type="line"/>
      <point x="100" y="389"/>
      <point x="148" y="470"/>
      <point x="226" y="470" type="curve" smooth="yes"/>
      <point x="253" y="470"/>
      <point x="279" y="461"/>
      <point x="298" y="444" type="curve"/>
    </contour>
    <contour>
      <point x="105" y="-60" type="line"/>
      <point x="141" y="-74" type="line"/>
      <point x="31" y="-324" type="line"/>
      <point x="6" y="-315" type="line"/>
    </contour>
  </outline>
</glyph>
<glyph name="Rcaron" format="1">
  <advance width="501"/>
  <unicode hex="0158"/>
  <outline>
    <contour>
      <point x="201" y="327" type="line"/>
      <point x="243" y="327" type="line"/>
      <point x="475" y="0" type="line"/>
      <point x="429" y="0" type="line"/>
    </contour>
    <contour>
      <point x="86" y="700" type="line"/>
      <point x="124" y="700" type="line"/>
      <point x="124" y="0" type="line"/>
      <point x="86" y="0" type="line"/>
    </contour>
    <contour>
      <point x="105" y="666" type="line"/>
      <point x="105" y="700" type="line"/>
      <point x="228" y="700" type="line" smooth="yes"/>
      <point x="363" y="700"/>
      <point x="465" y="630"/>
      <point x="465" y="501" type="curve" smooth="yes"/>
      <point x="465" y="372"/>
      <point x="363" y="302"/>
      <point x="228" y="302" type="curve" smooth="yes"/>
      <point x="105" y="302" type="line"/>
      <point x="105" y="335" type="line"/>
      <point x="228" y="335" type="line" smooth="yes"/>
      <point x="345" y="335"/>
      <point x="428" y="391"/>
      <point x="428" y="501" type="curve" smooth="yes"/>
      <point x="428" y="611"/>
      <point x="344" y="666"/>
      <point x="228" y="666" type="curve" smooth="yes"/>
    </contour>
    <contour>
      <point x="238" y="807" type="line"/>
      <point x="375" y="928" type="line"/>
      <point x="398" y="909" type="line"/>
      <point x="238" y="769" type="line"/>
      <point x="78" y="909" type="line"/>
      <point x="101" y="928" type="line"/>
    </contour>
  </outline>
</glyph>
<glyph name="scircumflex" format="1">
  <advance width="403"/>
  <unicode hex="015D"/>
  <outline>
    <contour>
      <point x="65" y="152" type="line"/>
      <point x="78" y="86"/>
      <point x="119" y="23"/>
      <point x="202" y="23" type="curve" smooth="yes"/>
      <point x="266" y="23"/>
      <point x="311" y="58"/>
      <point x="311" y="119" type="curve" smooth="yes"/>
      <point x="311" y="179"/>
      <point x="256" y="204"/>
      <point x="193" y="225" type="curve" smooth="yes"/>
      <point x="124" y="247"/>
      <point x="62" y="272"/>
      <point x="62" y="355" type="curve" smooth="yes"/>
      <point x="62" y="428"/>
      <point x="126" y="469"/>
      <point x="199" y="469" type="curve" smooth="yes"/>
      <point x="277" y="469"/>
      <point x="327" y="423"/>
      <point x="345" y="372" type="curve"/>
      <point x="315" y="355" type="line"/>
      <point x="296" y="397"/>
      <point x="258" y="435"/>
      <point x="199" y="435" type="curve" smooth="yes"/>
      <point x="143" y="435"/>
      <point x="97" y="409"/>
      <point x="97" y="354" type="curve" smooth="yes"/>
      <point x="97" y="289"/>
      <point x="156" y="271"/>
      <point x="219" y="250" type="curve" smooth="yes"/>
      <point x="284" y="228"/>
      <point x="347" y="192"/>
      <point x="347" y="122" type="curve" smooth="yes"/>
      <point x="347" y="36"/>
      <point x="286" y="-10"/>
      <point x="200" y="-10" type="curve" smooth="yes"/>
      <point x="102" y="-10"/>
      <point x="49" y="61"/>
      <point x="35" y="136" type="curve"/>
    </contour>
    <contour>
      <point x="199" y="651" type="line"/>
      <point x="61" y="530" type="line"/>
      <point x="39" y="549" type="line"/>
      <point x="199" y="689" type="line"/>
      <point x="359" y="549" type="line"/>
      <point x="337" y="530" type="line"/>
    </contour>
  </outline>
</glyph>
<glyph name="Scedilla" format="1">
  <advance width="509"/>
  <unicode hex="015E"/>
  <outline>
    <contour>
      <point x="72" y="207" type="line"/>
      <point x="104" y="116"/>
      <point x="160" y="27"/>
      <point x="269" y="27" type="curve" smooth="yes"/>
      <point x="381" y="27"/>
      <point x="426" y="90"/>
      <point x="426" y="178" type="curve" smooth="yes"/>
      <point x="426" y="276"/>
      <point x="338" y="322"/>
      <point x="261" y="351" type="curve" smooth="yes"/>
      <point x="185" y="379"/>
      <point x="78" y="433"/>
      <point x="78" y="545" type="curve" smooth="yes"/>
      <point x="78" y="645"/>
      <point x="161" y="709"/>
      <point x="262" y="709" type="curve" smooth="yes"/>
      <point x="375" y="709"/>
      <point x="437" y="625"/>
      <point x="459" y="554" type="curve"/>
      <point x="428" y="536" type="line"/>
      <point x="405" y="600"/>
      <point x="359" y="672"/>
      <point x="263" y="672" type="curve" smooth="yes"/>
      <point x="180" y="672"/>
      <point x="117" y="619"/>
      <point x="117" y="542" type="curve" smooth="yes"/>
      <point x="117" y="453"/>
      <point x="207" y="410"/>
      <point x="292" y="378" type="curve" smooth="yes"/>
      <point x="371" y="349"/>
      <point x="465" y="295"/>
      <point x="465" y="180" type="curve" smooth="yes"/>
      <point x="465" y="74"/>
      <point x="407" y="-9"/>
      <point x="268" y="-9" type="curve" smooth="yes"/>
      <point x="147" y="-9"/>
      <point x="74" y="85"/>
      <point x="40" y="189" type="curve"/>
    </contour>
    <contour>
      <point x="268" y="21" type="line"/>
      <point x="296" y="21" type="line"/>
      <point x="238" y="-69" type="line"/>
      <point x="201" y="-96" type="line"/>
    </contour>
    <contour>
      <point x="359" y="-127" type="curve"/>
      <point x="332" y="-127" type="line"/>
      <point x="332" y="-90"/>
      <point x="305" y="-73"/>
      <point x="274" y="-73" type="curve" smooth="yes"/>
      <point x="251" y="-73"/>
      <point x="224" y="-80"/>
      <point x="201" y="-96" type="curve"/>
      <point x="222" y="-74" type="line"/>
      <point x="248" y="-58"/>
      <point x="260" y="-53"/>
      <point x="286" y="-53" type="curve" smooth="yes"/>
      <point x="319" y="-53"/>
      <point x="359" y="-78"/>
    </contour>
    <contour>
      <point x="359" y="-127" type="line"/>
      <point x="359" y="-188"/>
      <point x="307" y="-221"/>
      <point x="252" y="-221" type="curve" smooth="yes"/>
      <point x="215" y="-221"/>
      <point x="191" y="-211"/>
      <point x="163" y="-183" type="curve"/>
      <point x="179" y="-165" type="line"/>
      <point x="204" y="-186"/>
      <point x="221" y="-195"/>
      <point x="252" y="-195" type="curve" smooth="yes"/>
      <point x="294" y="-195"/>
      <point x="332" y="-172"/>
      <point x="332" y="-127" type="curve"/>
    </contour>
  </outline>
</glyph>
<glyph name="Scaron" format="1">
  <advance width="509"/>
  <unicode hex="0160"/>
  <outline>
    <contour>
      <point x="72" y="207" type="line"/>
      <point x="104" y="116"/>
      <point x="160" y="27"/>
      <point x="269" y="27" type="curve" smooth="yes"/>
      <point x="381" y="27"/>
      <point x="426" y="90"/>
      <point x="426" y="178" type="curve" smooth="yes"/>
      <point x="426" y="276"/>
      <point x="338" y="322"/>
      <point x="261" y="351" type="curve" smooth="yes"/>
      <point x="185" y="379"/>
      <point x="78" y="433"/>
      <point x="78" y="545" type="curve" smooth="yes"/>
      <point x="78" y="645"/>
      <point x="161" y="709"/>
      <point x="262" y="709" type="curve" smooth="yes"/>
      <point x="375" y="709"/>
      <point x="437" y="625"/>
      <point x="459" y="554" type="curve"/>
      <point x="428" y="536" type="line"/>
      <point x="405" y="600"/>
      <point x="359" y="672"/>
      <point x="263" y="672" type="curve" smooth="yes"/>
      <point x="180" y="672"/>
      <point x="117" y="619"/>
      <point x="117" y="542" type="curve" smooth="yes"/>
      <point x="117" y="453"/>
      <point x="207" y="410"/>
      <point x="292" y="378" type="curve" smooth="yes"/>
      <point x="371" y="349"/>
      <point x="465" y="295"/>
      <point x="465" y="180" type="curve" smooth="yes"/>
      <point x="465" y="74"/>
      <point x="407" y="-9"/>
      <point x="268" y="-9" type="curve" smooth="yes"/>
      <point x="147" y="-9"/>
      <point x="74" y="85"/>
      <point x="40" y="189" type="curve"/>
    </contour>
    <contour>
      <point x="262" y="813" type="line"/>
      <point x="399" y="934" type="line"/>
      <point x="422" y="915" type="line"/>
      <point x="262" y="775" type="line"/>
      <point x="102" y="915" type="line"/>
      <point x="125" y="934" type="line"/>
    </contour>
  </outline>
</glyph>
<glyph name="Ydieresis" format="1">
  <advance width="526"/>
  <unicode hex="0178"/>
  <outline>
    <contour>
      <point x="241" y="306" type="line"/>
      <point x="279" y="306" type="line"/>
      <point x="279" y="0" type="line"/>
      <point x="241" y="0" type="line"/>
    </contour>
    <contour>
      <point x="472" y="700" type="line"/>
      <point x="515" y="700" type="line"/>
      <point x="259" y="246" type="line"/>
      <point x="11" y="700" type="line"/>
      <point x="54" y="700" type="line"/>
      <point x="259" y="315" type="line"/>
    </contour>
    <contour>
      <point x="330" y="796" type="curve" smooth="yes"/>
      <point x="330" y="811"/>
      <point x="343" y="822"/>
      <point x="357" y="822" type="curve" smooth="yes"/>
      <point x="371" y="822"/>
      <point x="384" y="811"/>
      <point x="384" y="796" type="curve" smooth="yes"/>
      <point x="384" y="781"/>
      <point x="371" y="769"/>
      <point x="357" y="769" type="curve" smooth="yes"/>
      <point x="343" y="769"/>
      <point x="330" y="781"/>
    </contour>
    <contour>
      <point x="142" y="796" type="curve" smooth="yes"/>
      <point x="142" y="811"/>
      <point x="156" y="822"/>
      <point x="170" y="822" type="curve" smooth="yes"/>
      <point x="184" y="822"/>
      <point x="197" y="811"/>
      <point x="197" y="796" type="curve" smooth="yes"/>
      <point x="197" y="781"/>
      <point x="184" y="769"/>
      <point x="170" y="769" type="curve" smooth="yes"/>
      <point x="156" y="769"/>
      <point x="142" y="781"/>
    </contour>
  </outline>
</glyph>
<glyph name="uni0213" format="1">
  <advance width="308"/>
  <unicode hex="0213"/>
  <outline>
    <contour>
      <point x="117" y="460" type="line"/>
      <point x="117" y="0" type="line"/>
      <point x="81" y="0" type="line"/>
      <point x="81" y="460" type="line"/>
    </contour>
    <contour>
      <point x="278" y="415" type="line"/>
      <point x="259" y="428"/>
      <point x="241" y="437"/>
      <point x="219" y="437" type="curve" smooth="yes"/>
      <point x="146" y="437"/>
      <point x="117" y="365"/>
      <point x="117" y="280" type="curve"/>
      <point x="100" y="280" type="line"/>
      <point x="100" y="389"/>
      <point x="148" y="470"/>
      <point x="226" y="470" type="curve" smooth="yes"/>
      <point x="253" y="470"/>
      <point x="279" y="461"/>
      <point x="298" y="444" type="curve"/>
    </contour>
    <contour>
      <point x="32" y="543" type="curve"/>
      <point x="64" y="543" type="line"/>
      <point x="64" y="595"/>
      <point x="106" y="653"/>
      <point x="190" y="653" type="curve" smooth="yes"/>
      <point x="274" y="653"/>
      <point x="316" y="595"/>
      <point x="316" y="543" type="curve"/>
      <point x="348" y="543" type="line"/>
      <point x="348" y="612"/>
      <point x="295" y="683"/>
      <point x="190" y="683" type="curve" smooth="yes"/>
      <point x="85" y="683"/>
      <point x="32" y="612"/>
    </contour>
  </outline>
</glyph>
<glyph name="uni0237" format="1">
  <advance width="205"/>
  <unicode hex="0237"/>
  <outline>
    <contour>
      <point x="-68" y="-146" type="line"/>
      <point x="-53" y="-167"/>
      <point x="-29" y="-185"/>
      <point x="0" y="-185" type="curve" smooth="yes"/>
      <point x="62" y="-185"/>
      <point x="80" y="-131"/>
      <point x="80" y="-71" type="curve" smooth="yes"/>
      <point x="80" y="460" type="line"/>
      <point x="115" y="460" type="line"/>
      <point x="115" y="-74" type="line" smooth="yes"/>
      <point x="115" y="-157"/>
      <point x="82" y="-220"/>
      <point x="-2" y="-220" type="curve" smooth="yes"/>
      <point x="-45" y="-220"/>
      <point x="-73" y="-195"/>
      <point x="-88" y="-175" type="curve"/>
    </contour>
  </outline>
</glyph>
<glyph name="circumflex" format="1">
  <advance width="480"/>
  <unicode hex="02C6"/>
  <outline>
    <contour>
      <point x="240" y="692" type="line"/>
      <point x="103" y="571" type="line"/>
      <point x="80" y="590" type="line"/>
      <point x="240" y="730" type="line"/>
      <point x="400" y="590" type="line"/>
      <point x="377" y="571" type="line"/>
    </contour>
  </outline>
</glyph>
<glyph name="dotaccent" format="1">
  <advance width="262"/>
  <unicode hex="02D9"/>
  <outline>
    <contour>
      <point x="105" y="765" type="curve" smooth="yes"/>
      <point x="105" y="780"/>
      <point x="117" y="792"/>
      <point x="131" y="792" type="curve" smooth="yes"/>
      <point x="145" y="792"/>
      <point x="158" y="780"/>
      <point x="158" y="765" type="curve" smooth="yes"/>
      <point x="158" y="750"/>
      <point x="145" y="738"/>
      <point x="131" y="738" type="curve" smooth="yes"/>
      <point x="117" y="738"/>
      <point x="105" y="750"/>
    </contour>
  </outline>
</glyph>
<glyph name="ogonek" format="1">
  <advance width="253"/>
  <unicode hex="02DB"/>
  <outline>
    <contour>
      <point x="204" y="-157" type="curve"/>
      <point x="221" y="-180" type="line"/>
      <point x="206" y="-200"/>
      <point x="169" y="-220"/>
      <point x="126" y="-220" type="curve" smooth="yes"/>
      <point x="55" y="-220"/>
      <point x="16" y="-186"/>
      <point x="16" y="-133" type="curve"/>
      <point x="51" y="-126" type="line"/>
      <point x="51" y="-168"/>
      <point x="85" y="-188"/>
      <point x="128" y="-188" type="curve" smooth="yes"/>
      <point x="163" y="-188"/>
      <point x="190" y="-173"/>
    </contour>
    <contour>
      <point x="51" y="-126" type="curve"/>
      <point x="16" y="-133" type="line"/>
      <point x="16" y="-68"/>
      <point x="91" y="-21"/>
      <point x="161" y="15" type="curve"/>
      <point x="181" y="0" type="line"/>
      <point x="119" y="-28"/>
      <point x="51" y="-76"/>
    </contour>
  </outline>
</glyph>
<glyph name="quotesinglbase" format="1">
  <advance width="255"/>
  <unicode hex="201A"/>
  <outline>
    <contour>
      <point x="141" y="80" type="line"/>
      <point x="183" y="80" type="line"/>
      <point x="86" y="-150" type="line"/>
      <point x="60" y="-150" type="line"/>
    </contour>
  </outline>
</glyph>
<glyph name="quotedblleft" format="1">
  <advance width="417"/>
  <unicode hex="201C"/>
  <outline>
    <contour>
      <point x="118" y="470" type="line"/>
      <point x="76" y="470" type="line"/>
      <point x="173" y="700" type="line"/>
      <point x="199" y="700" type="line"/>
    </contour>
    <contour>
      <point x="280" y="470" type="line"/>
      <point x="238" y="470" type="line"/>
      <point x="335" y="700" type="line"/>
      <point x="361" y="700" type="line"/>
    </contour>
  </outline>
</glyph>
<glyph name="ellipsis" format="1">
  <advance width="843"/>
  <unicode hex="2026"/>
  <outline>
    <contour>
      <point x="111" y="15" type="curve" smooth="yes"/>
      <point x="111" y="30"/>
      <point x="124" y="42"/>
      <point x="138" y="42" type="curve" smooth="yes"/>
      <point x="152" y="42"/>
      <point x="165" y="30"/>
      <point x="165" y="15" type="curve" smooth="yes"/>
      <point x="165" y="0"/>
      <point x="152" y="-12"/>
      <point x="138" y="-12" type="curve" smooth="yes"/>
      <point x="124" y="-12"/>
      <point x="111" y="0"/>
    </contour>
    <contour>
      <point x="395" y="15" type="curve" smooth="yes"/>
      <point x="395" y="30"/>
      <point x="408" y="42"/>
      <point x="422" y="42" type="curve" smooth="yes"/>
      <point x="436" y="42"/>
      <point x="449" y="30"/>
      <point x="449" y="15" type="curve" smooth="yes"/>
      <point x="449" y="0"/>
      <point x="436" y="-12"/>
      <point x="422" y="-12" type="curve" smooth="yes"/>
      <point x="408" y="-12"/>
      <point x="395" y="0"/>
    </contour>
    <contour>
      <point x="679" y="15" type="curve" smooth="yes"/>
      <point x="679" y="30"/>
      <point x="692" y="42"/>
      <point x="706" y="42" type="curve" smooth="yes"/>
      <point x="720" y="42"/>
      <point x="733" y="30"/>
      <point x="733" y="15" type="curve" smooth="yes"/>
      <point x="733" y="0"/>
      <point x="720" y="-12"/>
      <point x="706" y="-12" type="curve" smooth="yes"/>
      <point x="692" y="-12"/>
      <point x="679" y="0"/>
    </contour>
  </outline>
</glyph>
<glyph name="uni2074" format="1">
  <advance width="376"/>
  <unicode hex="2074"/>
  <outline>
    <contour>
      <point x="33" y="364" type="line"/>
      <point x="52" y="384" type="line"/>
      <point x="259" y="384" type="line" smooth="yes"/>
      <point x="264" y="384" type="line" smooth="yes"/>
      <point x="338" y="384" type="line"/>
      <point x="338" y="364" type="line"/>
    </contour>
    <contour>
      <point x="57" y="364" type="line"/>
      <point x="33" y="364" type="line"/>
      <point x="264" y="700" type="line"/>
      <point x="273" y="700" type="line"/>
      <point x="273" y="280" type="line"/>
      <point x="249" y="280" type="line"/>
      <point x="249" y="373" type="line" smooth="yes"/>
      <point x="249" y="376" type="line" smooth="yes"/>
      <point x="249" y="646" type="line"/>
    </contour>
  </outline>
</glyph>
<glyph name="uni2076" format="1">
  <advance width="336"/>
  <unicode hex="2076"/>
  <outline>
    <contour>
      <point x="60" y="412" type="curve" smooth="yes"/>
      <point x="60" y="343"/>
      <point x="107" y="292"/>
      <point x="174" y="292" type="curve" smooth="yes"/>
      <point x="241" y="292"/>
      <point x="288" y="343"/>
      <point x="288" y="412" type="curve" smooth="yes"/>
      <point x="288" y="478"/>
      <point x="239" y="527"/>
      <point x="179" y="527" type="curve" smooth="yes"/>
      <point x="106" y="527"/>
      <point x="60" y="474"/>
    </contour>
    <contour>
      <point x="207" y="698" type="line"/>
      <point x="235" y="698" type="line"/>
      <point x="94" y="503" type="line"/>
      <point x="93" y="504" type="line"/>
      <point x="115" y="531"/>
      <point x="147" y="544"/>
      <point x="185" y="544" type="curve" smooth="yes"/>
      <point x="253" y="544"/>
      <point x="309" y="485"/>
      <point x="309" y="412" type="curve" smooth="yes"/>
      <point x="309" y="330"/>
      <point x="255" y="272"/>
      <point x="174" y="272" type="curve" smooth="yes"/>
      <point x="93" y="272"/>
      <point x="39" y="330"/>
      <point x="39" y="412" type="curve" smooth="yes"/>
      <point x="39" y="446"/>
      <point x="54" y="482"/>
      <point x="70" y="504" type="curve" smooth="yes"/>
    </contour>
  </outline>
</glyph>
<glyph name="uni2079" format="1">
  <advance width="336"/>
  <unicode hex="2079"/>
  <outline>
    <contour>
      <point x="284" y="568" type="curve" smooth="yes"/>
      <point x="284" y="637"/>
      <point x="236" y="688"/>
      <point x="169" y="688" type="curve" smooth="yes"/>
      <point x="102" y="688"/>
      <point x="56" y="637"/>
      <point x="56" y="568" type="curve" smooth="yes"/>
      <point x="56" y="502"/>
      <point x="106" y="453"/>
      <point x="166" y="453" type="curve" smooth="yes"/>
      <point x="239" y="453"/>
      <point x="284" y="506"/>
    </contour>
    <contour>
      <point x="137" y="282" type="line"/>
      <point x="109" y="282" type="line"/>
      <point x="249" y="477" type="line"/>
      <point x="251" y="476" type="line"/>
      <point x="229" y="449"/>
      <point x="197" y="436"/>
      <point x="159" y="436" type="curve" smooth="yes"/>
      <point x="91" y="436"/>
      <point x="34" y="495"/>
      <point x="34" y="568" type="curve" smooth="yes"/>
      <point x="34" y="650"/>
      <point x="88" y="708"/>
      <point x="169" y="708" type="curve" smooth="yes"/>
      <point x="250" y="708"/>
      <point x="305" y="650"/>
      <point x="305" y="568" type="curve" smooth="yes"/>
      <point x="305" y="534"/>
      <point x="290" y="498"/>
      <point x="274" y="476" type="curve" smooth="yes"/>
    </contour>
  </outline>
</glyph>
<glyph name="uni2083" format="1">
  <advance width="315"/>
  <unicode hex="2083"/>
  <outline>
    <contour>
      <point x="141" y="213" type="curve"/>
      <point x="141" y="229" type="line"/>
      <point x="195" y="229"/>
      <point x="251" y="264"/>
      <point x="251" y="318" type="curve" smooth="yes"/>
      <point x="251" y="364"/>
      <point x="220" y="406"/>
      <point x="162" y="406" type="curve" smooth="yes"/>
      <point x="107" y="406"/>
      <point x="68" y="369"/>
      <point x="68" y="316" type="curve"/>
      <point x="46" y="316" type="line"/>
      <point x="46" y="381"/>
      <point x="93" y="426"/>
      <point x="162" y="426" type="curve" smooth="yes"/>
      <point x="234" y="426"/>
      <point x="273" y="373"/>
      <point x="273" y="318" type="curve" smooth="yes"/>
      <point x="273" y="255"/>
      <point x="211" y="213"/>
    </contour>
    <contour>
      <point x="159" y="-6" type="curve" smooth="yes"/>
      <point x="78" y="-6"/>
      <point x="28" y="46"/>
      <point x="28" y="111" type="curve"/>
      <point x="51" y="111" type="line"/>
      <point x="51" y="55"/>
      <point x="92" y="15"/>
      <point x="159" y="15" type="curve" smooth="yes"/>
      <point x="223" y="15"/>
      <point x="263" y="53"/>
      <point x="263" y="109" type="curve" smooth="yes"/>
      <point x="263" y="176"/>
      <point x="195" y="208"/>
      <point x="141" y="208" type="curve"/>
      <point x="141" y="223" type="line"/>
      <point x="211" y="223"/>
      <point x="285" y="186"/>
      <point x="285" y="107" type="curve" smooth="yes"/>
      <point x="285" y="40"/>
      <point x="234" y="-6"/>
    </contour>
  </outline>
</glyph>
<glyph name="uni2084" format="1">
  <advance width="376"/>
  <unicode hex="2084"/>
  <outline>
    <contour>
      <point x="33" y="84" type="line"/>
      <point x="52" y="104" type="line"/>
      <point x="259" y="104" type="line" smooth="yes"/>
      <point x="264" y="104" type="line" smooth="yes"/>
      <point x="338" y="104" type="line"/>
      <point x="338" y="84" type="line"/>
    </contour>
    <contour>
      <point x="57" y="84" type="line"/>
      <point x="33" y="84" type="line"/>
      <point x="264" y="420" type="line"/>
      <point x="273" y="420" type="line"/>
      <point x="273" y="0" type="line"/>
      <point x="249" y="0" type="line"/>
      <point x="249" y="93" type="line" smooth="yes"/>
      <point x="249" y="96" type="line" smooth="yes"/>
      <point x="249" y="366" type="line"/>
    </contour>
  </outline>
</glyph>
<glyph name="uni2085" format="1">
  <advance width="346"/>
  <unicode hex="2085"/>
  <outline>
    <contour>
      <point x="306" y="136" type="curve" smooth="yes"/>
      <point x="306" y="41"/>
      <point x="244" y="-8"/>
      <point x="167" y="-8" type="curve" smooth="yes"/>
      <point x="98" y="-8"/>
      <point x="57" y="28"/>
      <point x="33" y="80" type="curve"/>
      <point x="52" y="93" type="line"/>
      <point x="73" y="46"/>
      <point x="110" y="13"/>
      <point x="167" y="13" type="curve" smooth="yes"/>
      <point x="235" y="13"/>
      <point x="283" y="57"/>
      <point x="283" y="136" type="curve" smooth="yes"/>
      <point x="283" y="204"/>
      <point x="237" y="250"/>
      <point x="177" y="250" type="curve" smooth="yes"/>
      <point x="129" y="250"/>
      <point x="95" y="232"/>
      <point x="60" y="194" type="curve"/>
      <point x="77" y="221" type="line"/>
      <point x="99" y="249"/>
      <point x="139" y="270"/>
      <point x="185" y="270" type="curve" smooth="yes"/>
      <point x="253" y="270"/>
      <point x="306" y="215"/>
    </contour>
    <contour>
      <point x="131" y="398" type="line"/>
      <point x="89" y="226" type="line"/>
      <point x="60" y="194" type="line"/>
      <point x="115" y="418" type="line"/>
      <point x="313" y="418" type="line"/>
      <point x="313" y="398" type="line"/>
    </contour>
  </outline>
</glyph>
<glyph name="uni2086" format="1">
  <advance width="336"/>
  <unicode hex="2086"/>
  <outline>
    <contour>
      <point x="60" y="132" type="curve" smooth="yes"/>
      <point x="60" y="63"/>
      <point x="106" y="12"/>
      <point x="173" y="12" type="curve" smooth="yes"/>
      <point x="240" y="12"/>
      <point x="288" y="63"/>
      <point x="288" y="132" type="curve" smooth="yes"/>
      <point x="288" y="198"/>
      <point x="238" y="247"/>
      <point x="178" y="247" type="curve" smooth="yes"/>
      <point x="105" y="247"/>
      <point x="60" y="194"/>
    </contour>
    <contour>
      <point x="206" y="418" type="line"/>
      <point x="235" y="418" type="line"/>
      <point x="94" y="223" type="line"/>
      <point x="93" y="224" type="line"/>
      <point x="115" y="251"/>
      <point x="147" y="264"/>
      <point x="185" y="264" type="curve" smooth="yes"/>
      <point x="253" y="264"/>
      <point x="309" y="205"/>
      <point x="309" y="132" type="curve" smooth="yes"/>
      <point x="309" y="50"/>
      <point x="254" y="-8"/>
      <point x="173" y="-8" type="curve" smooth="yes"/>
      <point x="92" y="-8"/>
      <point x="38" y="50"/>
      <point x="38" y="132" type="curve" smooth="yes"/>
      <point x="38" y="166"/>
      <point x="54" y="202"/>
      <point x="70" y="224" type="curve" smooth="yes"/>
    </contour>
  </outline>
</glyph>
<glyph name="uni2087" format="1">
  <advance width="352"/>
  <unicode hex="2087"/>
  <outline>
    <contour>
      <point x="33" y="399" type="line"/>
      <point x="33" y="420" type="line"/>
      <point x="319" y="420" type="line"/>
      <point x="105" y="0" type="line"/>
      <point x="81" y="0" type="line"/>
      <point x="286" y="399" type="line"/>
    </contour>
  </outline>
</glyph>
<glyph name="uni2089" format="1">
  <advance width="336"/>
  <unicode hex="2089"/>
  <outline>
    <contour>
      <point x="278" y="288" type="curve" smooth="yes"/>
      <point x="278" y="357"/>
      <point x="230" y="408"/>
      <point x="163" y="408" type="curve" smooth="yes"/>
      <point x="96" y="408"/>
      <point x="50" y="357"/>
      <point x="50" y="288" type="curve" smooth="yes"/>
      <point x="50" y="222"/>
      <point x="100" y="173"/>
      <point x="160" y="173" type="curve" smooth="yes"/>
      <point x="233" y="173"/>
      <point x="278" y="226"/>
    </contour>
    <contour>
      <point x="131" y="2" type="line"/>
      <point x="103" y="2" type="line"/>
      <point x="243" y="197" type="line"/>
      <point x="245" y="196" type="line"/>
      <point x="223" y="169"/>
      <point x="191" y="156"/>
      <point x="153" y="156" type="curve" smooth="yes"/>
      <point x="85" y="156"/>
      <point x="28" y="215"/>
      <point x="28" y="288" type="curve" smooth="yes"/>
      <point x="28" y="370"/>
      <point x="82" y="428"/>
      <point x="163" y="428" type="curve" smooth="yes"/>
      <point x="244" y="428"/>
      <point x="299" y="370"/>
      <point x="299" y="288" type="curve" smooth="yes"/>
      <point x="299" y="254"/>
      <point x="284" y="218"/>
      <point x="268" y="196" type="curve" smooth="yes"/>
    </contour>
  </outline>
</glyph>
<glyph name="Euro" format="1">
  <advance width="656"/>
  <unicode hex="20AC"/>
  <outline>
    <contour>
      <point x="53" y="431" type="line"/>
      <point x="53" y="455" type="line"/>
      <point x="554" y="455" type="line"/>
      <point x="554" y="431" type="line"/>
    </contour>
    <contour>
      <point x="53" y="311" type="line"/>
      <point x="53" y="335" type="line"/>
      <point x="528" y="335" type="line"/>
      <point x="528" y="311" type="line"/>
    </contour>
    <contour>
      <point x="158" y="350" type="curve" smooth="yes"/>
      <point x="158" y="160"/>
      <point x="259" y="25"/>
      <point x="408" y="25" type="curve" smooth="yes"/>
      <point x="465" y="25"/>
      <point x="517" y="43"/>
      <point x="558" y="76" type="curve"/>
      <point x="558" y="31" type="line"/>
      <point x="513" y="5"/>
      <point x="462" y="-10"/>
      <point x="408" y="-10" type="curve" smooth="yes"/>
      <point x="234" y="-10"/>
      <point x="121" y="141"/>
      <point x="121" y="350" type="curve" smooth="yes"/>
      <point x="121" y="559"/>
      <point x="234" y="710"/>
      <point x="408" y="710" type="curve" smooth="yes"/>
      <point x="462" y="710"/>
      <point x="513" y="695"/>
      <point x="558" y="669" type="curve"/>
      <point x="558" y="624" type="line"/>
      <point x="517" y="657"/>
      <point x="465" y="675"/>
      <point x="408" y="675" type="curve" smooth="yes"/>
      <point x="253" y="675"/>
      <point x="158" y="540"/>
    </contour>
  </outline>
</glyph>
<glyph name="uni2150" format="1">
  <advance width="842"/>
  <unicode hex="2150"/>
  <outline>
    <contour>
      <point x="602" y="700" type="line"/>
      <point x="633" y="700" type="line"/>
      <point x="79" y="0" type="line"/>
      <point x="48" y="0" type="line"/>
    </contour>
    <contour>
      <point x="24" y="646" type="line"/>
      <point x="24" y="670" type="line"/>
      <point x="145" y="698" type="line"/>
      <point x="145" y="274" type="line"/>
      <point x="123" y="274" type="line"/>
      <point x="123" y="671" type="line"/>
    </contour>
    <contour>
      <point x="521" y="399" type="line"/>
      <point x="521" y="420" type="line"/>
      <point x="807" y="420" type="line"/>
      <point x="593" y="0" type="line"/>
      <point x="569" y="0" type="line"/>
      <point x="774" y="399" type="line"/>
    </contour>
  </outline>
</glyph>
<glyph name="uni2151" format="1">
  <advance width="784"/>
  <unicode hex="2151"/>
  <outline>
    <contour>
      <point x="602" y="700" type="line"/>
      <point x="633" y="700" type="line"/>
      <point x="79" y="0" type="line"/>
      <point x="48" y="0" type="line"/>
    </contour>
    <contour>
      <point x="24" y="646" type="line"/>
      <point x="24" y="670" type="line"/>
      <point x="145" y="698" type="line"/>
      <point x="145" y="274" type="line"/>
      <point x="123" y="274" type="line"/>
      <point x="123" y="671" type="line"/>
    </contour>
    <contour>
      <point x="722" y="288" type="curve" smooth="yes"/>
      <point x="722" y="357"/>
      <point x="674" y="408"/>
      <point x="607" y="408" type="curve" smooth="yes"/>
      <point x="540" y="408"/>
      <point x="494" y="357"/>
      <point x="494" y="288" type="curve" smooth="yes"/>
      <point x="494" y="222"/>
      <point x="544" y="173"/>
      <point x="604" y="173" type="curve" smooth="yes"/>
      <point x="677" y="173"/>
      <point x="722" y="226"/>
    </contour>
    <contour>
      <point x="575" y="2" type="line"/>
      <point x="547" y="2" type="line"/>
      <point x="687" y="197" type="line"/>
      <point x="689" y="196" type="line"/>
      <point x="667" y="169"/>
      <point x="635" y="156"/>
      <point x="597" y="156" type="curve" smooth="yes"/>
      <point x="529" y="156"/>
      <point x="472" y="215"/>
      <point x="472" y="288" type="curve" smooth="yes"/>
      <point x="472" y="370"/>
      <point x="526" y="428"/>
      <point x="607" y="428" type="curve" smooth="yes"/>
      <point x="688" y="428"/>
      <point x="743" y="370"/>
      <point x="743" y="288" type="curve" smooth="yes"/>
      <point x="743" y="254"/>
      <point x="728" y="218"/>
      <point x="712" y="196" type="curve" smooth="yes"/>
    </contour>
  </outline>
</glyph>
<glyph name="twothirds" format="1">
  <advance width="882"/>
  <unicode hex="2154"/>
  <outline>
    <contour>
      <point x="729" y="700" type="line"/>
      <point x="760" y="700" type="line"/>
      <point x="206" y="0" type="line"/>
      <point x="175" y="0" type="line"/>
    </contour>
    <contour>
      <point x="32" y="282" type="line"/>
      <point x="226" y="487" type="line" smooth="yes"/>
      <point x="254" y="517"/>
      <point x="278" y="547"/>
      <point x="278" y="591" type="curve" smooth="yes"/>
      <point x="278" y="634"/>
      <point x="251" y="688"/>
      <point x="183" y="688" type="curve" smooth="yes"/>
      <point x="118" y="688"/>
      <point x="74" y="635"/>
      <point x="74" y="558" type="curve"/>
      <point x="52" y="558" type="line"/>
      <point x="52" y="647"/>
      <point x="104" y="709"/>
      <point x="183" y="709" type="curve" smooth="yes"/>
      <point x="267" y="709"/>
      <point x="301" y="642"/>
      <point x="301" y="590" type="curve" smooth="yes"/>
      <point x="301" y="543"/>
      <point x="275" y="506"/>
      <point x="244" y="474" type="curve" smooth="yes"/>
      <point x="79" y="303" type="line"/>
      <point x="313" y="303" type="line"/>
      <point x="313" y="282" type="line"/>
    </contour>
    <contour>
      <point x="706" y="213" type="curve"/>
      <point x="706" y="229" type="line"/>
      <point x="760" y="229"/>
      <point x="816" y="264"/>
      <point x="816" y="318" type="curve" smooth="yes"/>
      <point x="816" y="364"/>
      <point x="785" y="406"/>
      <point x="727" y="406" type="curve" smooth="yes"/>
      <point x="672" y="406"/>
      <point x="633" y="369"/>
      <point x="633" y="316" type="curve"/>
      <point x="611" y="316" type="line"/>
      <point x="611" y="381"/>
      <point x="658" y="426"/>
      <point x="727" y="426" type="curve" smooth="yes"/>
      <point x="799" y="426"/>
      <point x="838" y="373"/>
      <point x="838" y="318" type="curve" smooth="yes"/>
      <point x="838" y="255"/>
      <point x="776" y="213"/>
    </contour>
    <contour>
      <point x="724" y="-6" type="curve" smooth="yes"/>
      <point x="643" y="-6"/>
      <point x="593" y="46"/>
      <point x="593" y="111" type="curve"/>
      <point x="616" y="111" type="line"/>
      <point x="616" y="55"/>
      <point x="657" y="15"/>
      <point x="724" y="15" type="curve" smooth="yes"/>
      <point x="788" y="15"/>
      <point x="828" y="53"/>
      <point x="828" y="109" type="curve" smooth="yes"/>
      <point x="828" y="176"/>
      <point x="760" y="208"/>
      <point x="706" y="208" type="curve"/>
      <point x="706" y="223" type="line"/>
      <point x="776" y="223"/>
      <point x="850" y="186"/>
      <point x="850" y="107" type="curve" smooth="yes"/>
      <point x="850" y="40"/>
      <point x="799" y="-6"/>
    </contour>
  </outline>
</glyph>
<glyph name="uni2155" format="1">
  <advance width="744"/>
  <unicode hex="2155"/>
  <outline>
    <contour>
      <point x="602" y="700" type="line"/>
      <point x="633" y="700" type="line"/>
      <point x="79" y="0" type="line"/>
      <point x="48" y="0" type="line"/>
    </contour>
    <contour>
      <point x="24" y="646" type="line"/>
      <point x="24" y="670" type="line"/>
      <point x="145" y="698" type="line"/>
      <point x="145" y="274" type="line"/>
      <point x="123" y="274" type="line"/>
      <point x="123" y="671" type="line"/>
    </contour>
    <contour>
      <point x="694" y="136" type="curve" smooth="yes"/>
      <point x="694" y="41"/>
      <point x="632" y="-8"/>
      <point x="555" y="-8" type="curve" smooth="yes"/>
      <point x="486" y="-8"/>
      <point x="445" y="28"/>
      <point x="421" y="80" type="curve"/>
      <point x="440" y="93" type="line"/>
      <point x="461" y="46"/>
      <point x="498" y="13"/>
      <point x="555" y="13" type="curve" smooth="yes"/>
      <point x="623" y="13"/>
      <point x="671" y="57"/>
      <point x="671" y="136" type="curve" smooth="yes"/>
      <point x="671" y="204"/>
      <point x="625" y="250"/>
      <point x="565" y="250" type="curve" smooth="yes"/>
      <point x="517" y="250"/>
      <point x="483" y="232"/>
      <point x="448" y="194" type="curve"/>
      <point x="465" y="221" type="line"/>
      <point x="487" y="249"/>
      <point x="527" y="270"/>
      <point x="573" y="270" type="curve" smooth="yes"/>
      <point x="641" y="270"/>
      <point x="694" y="215"/>
    </contour>
    <contour>
      <point x="519" y="398" type="line"/>
      <point x="477" y="226" type="line"/>
      <point x="448" y="194" type="line"/>
      <point x="503" y="418" type="line"/>
      <point x="701" y="418" type="line"/>
      <point x="701" y="398" type="line"/>
    </contour>
  </outline>
</glyph>
<glyph name="uni2159" format="1">
  <advance width="734"/>
  <unicode hex="2159"/>
  <outline>
    <contour>
      <point x="602" y="700" type="line"/>
      <point x="633" y="700" type="line"/>
      <point x="79" y="0" type="line"/>
      <point x="48" y="0" type="line"/>
    </contour>
    <contour>
      <point x="24" y="646" type="line"/>
      <point x="24" y="670" type="line"/>
      <point x="145" y="698" type="line"/>
      <point x="145" y="274" type="line"/>
      <point x="123" y="274" type="line"/>
      <point x="123" y="671" type="line"/>
    </contour>
    <contour>
      <point x="448" y="132" type="curve" smooth="yes"/>
      <point x="448" y="63"/>
      <point x="495" y="12"/>
      <point x="562" y="12" type="curve" smooth="yes"/>
      <point x="629" y="12"/>
      <point x="676" y="63"/>
      <point x="676" y="132" type="curve" smooth="yes"/>
      <point x="676" y="198"/>
      <point x="627" y="247"/>
      <point x="567" y="247" type="curve" smooth="yes"/>
      <point x="494" y="247"/>
      <point x="448" y="194"/>
    </contour>
    <contour>
      <point x="595" y="418" type="line"/>
      <point x="623" y="418" type="line"/>
      <point x="482" y="223" type="line"/>
      <point x="481" y="224" type="line"/>
      <point x="503" y="251"/>
      <point x="535" y="264"/>
      <point x="573" y="264" type="curve" smooth="yes"/>
      <point x="641" y="264"/>
      <point x="697" y="205"/>
      <point x="697" y="132" type="curve" smooth="yes"/>
      <point x="697" y="50"/>
      <point x="643" y="-8"/>
      <point x="562" y="-8" type="curve" smooth="yes"/>
      <point x="481" y="-8"/>
      <point x="427" y="50"/>
      <point x="427" y="132" type="curve" smooth="yes"/>
      <point x="427" y="166"/>
      <point x="442" y="202"/>
      <point x="458" y="224" type="curve" smooth="yes"/>
    </contour>
  </outline>
</glyph>
<glyph name="uni215A" format="1">
  <advance width="856"/>
  <unicode hex="215A"/>
  <outline>
    <contour>
      <point x="724" y="700" type="line"/>
      <point x="755" y="700" type="line"/>
      <point x="201" y="0" type="line"/>
      <point x="170" y="0" type="line"/>
    </contour>
    <contour>
      <point x="306" y="416" type="curve" smooth="yes"/>
      <point x="306" y="321"/>
      <point x="244" y="272"/>
      <point x="167" y="272" type="curve" smooth="yes"/>
      <point x="98" y="272"/>
      <point x="57" y="308"/>
      <point x="33" y="360" type="curve"/>
      <point x="52" y="373" type="line"/>
      <point x="73" y="326"/>
      <point x="110" y="293"/>
      <point x="167" y="293" type="curve" smooth="yes"/>
      <point x="235" y="293"/>
      <point x="283" y="337"/>
      <point x="283" y="416" type="curve" smooth="yes"/>
      <point x="283" y="484"/>
      <point x="237" y="530"/>
      <point x="177" y="530" type="curve" smooth="yes"/>
      <point x="129" y="530"/>
      <point x="95" y="512"/>
      <point x="60" y="474" type="curve"/>
      <point x="77" y="501" type="line"/>
      <point x="99" y="529"/>
      <point x="139" y="550"/>
      <point x="185" y="550" type="curve" smooth="yes"/>
      <point x="253" y="550"/>
      <point x="306" y="495"/>
    </contour>
    <contour>
      <point x="131" y="678" type="line"/>
      <point x="89" y="506" type="line"/>
      <point x="60" y="474" type="line"/>
      <point x="115" y="698" type="line"/>
      <point x="313" y="698" type="line"/>
      <point x="313" y="678" type="line"/>
    </contour>
    <contour>
      <point x="570" y="132" type="curve" smooth="yes"/>
      <point x="570" y="63"/>
      <point x="617" y="12"/>
      <point x="684" y="12" type="curve" smooth="yes"/>
      <point x="751" y="12"/>
      <point x="798" y="63"/>
      <point x="798" y="132" type="curve" smooth="yes"/>
      <point x="798" y="198"/>
      <point x="749" y="247"/>
      <point x="689" y="247" type="curve" smooth="yes"/>
      <point x="616" y="247"/>
      <point x="570" y="194"/>
    </contour>
    <contour>
      <point x="717" y="418" type="line"/>
      <point x="745" y="418" type="line"/>
      <point x="604" y="223" type="line"/>
      <point x="603" y="224" type="line"/>
      <point x="625" y="251"/>
      <point x="657" y="264"/>
      <point x="695" y="264" type="curve" smooth="yes"/>
      <point x="763" y="264"/>
      <point x="819" y="205"/>
      <point x="819" y="132" type="curve" smooth="yes"/>
      <point x="819" y="50"/>
      <point x="765" y="-8"/>
      <point x="684" y="-8" type="curve" smooth="yes"/>
      <point x="603" y="-8"/>
      <point x="549" y="50"/>
      <point x="549" y="132" type="curve" smooth="yes"/>
      <point x="549" y="166"/>
      <point x="564" y="202"/>
      <point x="580" y="224" type="curve" smooth="yes"/>
    </contour>
  </outline>
</glyph>
<glyph name="oneeighth" format="1">
  <advance width="760"/>
  <unicode hex="215B"/>
  <outline>
    <contour>
      <point x="602" y="700" type="line"/>
      <point x="633" y="700" type="line"/>
      <point x="79" y="0" type="line"/>
      <point x="48" y="0" type="line"/>
    </contour>
    <contour>
      <point x="24" y="646" type="line"/>
      <point x="24" y="670" type="line"/>
      <point x="145" y="698" type="line"/>
      <point x="145" y="274" type="line"/>
      <point x="123" y="274" type="line"/>
      <point x="123" y="671" type="line"/>
    </contour>
    <contour>
      <point x="484" y="323" type="curve" smooth="yes"/>
      <point x="484" y="378"/>
      <point x="531" y="426"/>
      <point x="593" y="426" type="curve" smooth="yes"/>
      <point x="655" y="426"/>
      <point x="701" y="378"/>
      <point x="701" y="323" type="curve" smooth="yes"/>
      <point x="701" y="262"/>
      <point x="651" y="218"/>
      <point x="593" y="218" type="curve" smooth="yes"/>
      <point x="535" y="218"/>
      <point x="484" y="262"/>
    </contour>
    <contour>
      <point x="506" y="321" type="curve" smooth="yes"/>
      <point x="506" y="270"/>
      <point x="553" y="233"/>
      <point x="593" y="233" type="curve" smooth="yes"/>
      <point x="633" y="233"/>
      <point x="679" y="270"/>
      <point x="679" y="321" type="curve" smooth="yes"/>
      <point x="679" y="369"/>
      <point x="643" y="406"/>
      <point x="593" y="406" type="curve" smooth="yes"/>
      <point x="543" y="406"/>
      <point x="506" y="369"/>
    </contour>
    <contour>
      <point x="471" y="112" type="curve" smooth="yes"/>
      <point x="471" y="181"/>
      <point x="530" y="227"/>
      <point x="593" y="227" type="curve" smooth="yes"/>
      <point x="656" y="227"/>
      <point x="714" y="181"/>
      <point x="714" y="112" type="curve" smooth="yes"/>
      <point x="714" y="47"/>
      <point x="668" y="-6"/>
      <point x="593" y="-6" type="curve" smooth="yes"/>
      <point x="518" y="-6"/>
      <point x="471" y="47"/>
    </contour>
    <contour>
      <point x="493" y="114" type="curve" smooth="yes"/>
      <point x="493" y="54"/>
      <point x="534" y="14"/>
      <point x="593" y="14" type="curve" smooth="yes"/>
      <point x="652" y="14"/>
      <point x="692" y="54"/>
      <point x="692" y="114" type="curve" smooth="yes"/>
      <point x="692" y="171"/>
      <point x="643" y="212"/>
      <point x="593" y="212" type="curve" smooth="yes"/>
      <point x="543" y="212"/>
      <point x="493" y="171"/>
    </contour>
  </outline>
</glyph>
<glyph name="uni2219" format="1">
  <advance width="274"/>
  <unicode hex="2219"/>
  <outline>
    <contour>
      <point x="111" y="437" type="curve" smooth="yes"/>
      <point x="111" y="452"/>
      <point x="123" y="464"/>
      <point x="137" y="464" type="curve" smooth="yes"/>
      <point x="151" y="464"/>
      <point x="164" y="452"/>
      <point x="164" y="437" type="curve" smooth="yes"/>
      <point x="164" y="422"/>
      <point x="151" y="410"/>
      <point x="137" y="410" type="curve" smooth="yes"/>
      <point x="123" y="410"/>
      <point x="111" y="422"/>
    </contour>
  </outline>
</glyph>
<glyph name="uniFF13" format="1">
  <advance width="560"/>
  <unicode hex="FF13"/>
  <outline>
    <contour>
      <point x="256" y="356" type="curve"/>
      <point x="256" y="381" type="line"/>
      <point x="346" y="381"/>
      <point x="440" y="439"/>
      <point x="440" y="529" type="curve" smooth="yes"/>
      <point x="440" y="606"/>
      <point x="387" y="676"/>
      <point x="290" y="676" type="curve" smooth="yes"/>
      <point x="197" y="676"/>
      <point x="134" y="613"/>
      <point x="134" y="526" type="curve"/>
      <point x="99" y="526" type="line"/>
      <point x="99" y="635"/>
      <point x="175" y="710"/>
      <point x="290" y="710" type="curve" smooth="yes"/>
      <point x="410" y="710"/>
      <point x="477" y="623"/>
      <point x="477" y="530" type="curve" smooth="yes"/>
      <point x="477" y="425"/>
      <point x="372" y="356"/>
    </contour>
    <contour>
      <point x="286" y="-10" type="curve" smooth="yes"/>
      <point x="151" y="-10"/>
      <point x="69" y="76"/>
      <point x="69" y="185" type="curve"/>
      <point x="106" y="185" type="line"/>
      <point x="106" y="93"/>
      <point x="174" y="25"/>
      <point x="286" y="25" type="curve" smooth="yes"/>
      <point x="392" y="25"/>
      <point x="460" y="90"/>
      <point x="460" y="182" type="curve" smooth="yes"/>
      <point x="460" y="293"/>
      <point x="346" y="347"/>
      <point x="256" y="347" type="curve"/>
      <point x="256" y="372" type="line"/>
      <point x="372" y="372"/>
      <point x="497" y="312"/>
      <point x="497" y="179" type="curve" smooth="yes"/>
      <point x="497" y="66"/>
      <point x="411" y="-10"/>
    </contour>
  </outline>
</glyph>
<glyph name="uniFF15" format="1">
  <advance width="560"/>
  <unicode hex="FF15"/>
  <outline>
    <contour>
      <point x="503" y="230" type="curve" smooth="yes"/>
      <point x="503" y="71"/>
      <point x="399" y="-10"/>
      <point x="270" y="-10" type="curve" smooth="yes"/>
      <point x="154" y="-10"/>
      <point x="87" y="51"/>
      <point x="47" y="137" type="curve"/>
      <point x="78" y="158" type="line"/>
      <point x="112" y="80"/>
      <point x="175" y="25"/>
      <point x="270" y="25" type="curve" smooth="yes"/>
      <point x="383" y="25"/>
      <point x="465" y="99"/>
      <point x="465" y="230" type="curve" smooth="yes"/>
      <point x="465" y="342"/>
      <point x="387" y="419"/>
      <point x="287" y="419" type="curve" smooth="yes"/>
      <point x="207" y="419"/>
      <point x="150" y="390"/>
      <point x="92" y="327" type="curve"/>
      <point x="121" y="371" type="line"/>
      <point x="157" y="418"/>
      <point x="221" y="453"/>
      <point x="299" y="453" type="curve" smooth="yes"/>
      <point x="413" y="453"/>
      <point x="503" y="363"/>
    </contour>
    <contour>
      <point x="211" y="667" type="line"/>
      <point x="141" y="380" type="line"/>
      <point x="92" y="327" type="line"/>
      <point x="184" y="700" type="line"/>
      <point x="514" y="700" type="line"/>
      <point x="514" y="667" type="line"/>
    </contour>
  </outline>
</glyph>
<glyph name="uniFF18" format="1">
  <advance width="560"/>
  <unicode hex="FF18"/>
  <outline>
    <contour>
      <point x="100" y="537" type="curve" smooth="yes"/>
      <point x="100" y="630"/>
      <point x="176" y="710"/>
      <point x="280" y="710" type="curve" smooth="yes"/>
      <point x="384" y="710"/>
      <point x="461" y="630"/>
      <point x="461" y="537" type="curve" smooth="yes"/>
      <point x="461" y="434"/>
      <point x="376" y="363"/>
      <point x="280" y="363" type="curve" smooth="yes"/>
      <point x="184" y="363"/>
      <point x="100" y="434"/>
    </contour>
    <contour>
      <point x="136" y="534" type="curve" smooth="yes"/>
      <point x="136" y="449"/>
      <point x="214" y="388"/>
      <point x="280" y="388" type="curve" smooth="yes"/>
      <point x="346" y="388"/>
      <point x="425" y="449"/>
      <point x="425" y="534" type="curve" smooth="yes"/>
      <point x="425" y="613"/>
      <point x="364" y="677"/>
      <point x="280" y="677" type="curve" smooth="yes"/>
      <point x="196" y="677"/>
      <point x="136" y="613"/>
    </contour>
    <contour>
      <point x="78" y="187" type="curve" smooth="yes"/>
      <point x="78" y="303"/>
      <point x="175" y="379"/>
      <point x="280" y="379" type="curve" smooth="yes"/>
      <point x="385" y="379"/>
      <point x="482" y="303"/>
      <point x="482" y="187" type="curve" smooth="yes"/>
      <point x="482" y="78"/>
      <point x="405" y="-10"/>
      <point x="280" y="-10" type="curve" smooth="yes"/>
      <point x="155" y="-10"/>
      <point x="78" y="78"/>
    </contour>
    <contour>
      <point x="114" y="190" type="curve" smooth="yes"/>
      <point x="114" y="91"/>
      <point x="181" y="23"/>
      <point x="280" y="23" type="curve" smooth="yes"/>
      <point x="379" y="23"/>
      <point x="447" y="91"/>
      <point x="447" y="190" type="curve" smooth="yes"/>
      <point x="447" y="285"/>
      <point x="363" y="354"/>
      <point x="280" y="354" type="curve" smooth="yes"/>
      <point x="197" y="354"/>
      <point x="114" y="285"/>
    </contour>
  </outline>
</glyph>
<glyph name="uniFF19" format="1">
  <advance width="560"/>
  <unicode hex="FF19"/>
  <outline>
    <contour>
      <point x="470" y="476" type="curve" smooth="yes"/>
      <point x="470" y="591"/>
      <point x="392" y="676"/>
      <point x="280" y="676" type="curve" smooth="yes"/>
      <point x="168" y="676"/>
      <point x="91" y="591"/>
      <point x="91" y="476" type="curve" smooth="yes"/>
      <point x="91" y="367"/>
      <point x="174" y="284"/>
      <point x="274" y="284" type="curve" smooth="yes"/>
      <point x="396" y="284"/>
      <point x="470" y="374"/>
    </contour>
    <contour>
      <point x="226" y="0" type="line"/>
      <point x="179" y="0" type="line"/>
      <point x="413" y="325" type="line"/>
      <point x="415" y="323" type="line"/>
      <point x="378" y="278"/>
      <point x="326" y="256"/>
      <point x="262" y="256" type="curve" smooth="yes"/>
      <point x="148" y="256"/>
      <point x="55" y="353"/>
      <point x="55" y="476" type="curve" smooth="yes"/>
      <point x="55" y="614"/>
      <point x="145" y="710"/>
      <point x="280" y="710" type="curve" smooth="yes"/>
      <point x="415" y="710"/>
      <point x="506" y="614"/>
      <point x="506" y="476" type="curve" smooth="yes"/>
      <point x="506" y="419"/>
      <point x="481" y="359"/>
      <point x="454" y="322" type="curve" smooth="yes"/>
    </contour>
  </outline>
</glyph>
<glyph name="adieresis.alt" format="1">
  <advance width="551"/>
  <outline>
    <contour>
      <point x="441" y="460" type="line"/>
      <point x="475" y="460" type="line"/>
      <point x="475" y="0" type="line"/>
      <point x="441" y="0" type="line"/>
    </contour>
    <contour>
      <point x="41" y="230" type="curve" smooth="yes"/>
      <point x="41" y="378"/>
      <point x="138" y="470"/>
      <point x="260" y="470" type="curve" smooth="yes"/>
      <point x="380" y="470"/>
      <point x="456" y="360"/>
      <point x="456" y="230" type="curve" smooth="yes"/>
      <point x="456" y="100"/>
      <point x="380" y="-10"/>
      <point x="260" y="-10" type="curve" smooth="yes"/>
      <point x="138" y="-10"/>
      <point x="41" y="82"/>
    </contour>
    <contour>
      <point x="77" y="230" type="curve" smooth="yes"/>
      <point x="77" y="102"/>
      <point x="160" y="23"/>
      <point x="265" y="23" type="curve" smooth="yes"/>
      <point x="360" y="23"/>
      <point x="440" y="118"/>
      <point x="440" y="230" type="curve" smooth="yes"/>
      <point x="440" y="342"/>
      <point x="360" y="437"/>
      <point x="265" y="437" type="curve" smooth="yes"/>
      <point x="160" y="437"/>
      <point x="77" y="358"/>
    </contour>
    <contour>
      <point x="347" y="589" type="curve" smooth="yes"/>
      <point x="347" y="604"/>
      <point x="359" y="616"/>
      <point x="373" y="616" type="curve" smooth="yes"/>
      <point x="387" y="616"/>
      <point x="400" y="604"/>
      <point x="400" y="589" type="curve" smooth="yes"/>
      <point x="400" y="574"/>
      <point x="387" y="562"/>
      <point x="373" y="562" type="curve" smooth="yes"/>
      <point x="359" y="562"/>
      <point x="347" y="574"/>
    </contour>
    <contour>
      <point x="147" y="589" type="curve" smooth="yes"/>
      <point x="147" y="604"/>
      <point x="159" y="616"/>
      <point x="173" y="616" type="curve" smooth="yes"/>
      <point x="187" y="616"/>
      <point x="200" y="604"/>
      <point x="200" y="589" type="curve" smooth="yes"/>
      <point x="200" y="574"/>
      <point x="187" y="562"/>
      <point x="173" y="562" type="curve" smooth="yes"/>
      <point x="159" y="562"/>
      <point x="147" y="574"/>
    </contour>
  </outline>
</glyph>
<glyph name="aogonek.alt" format="1">
  <advance width="550"/>
  <outline>
    <contour>
      <point x="441" y="460" type="line"/>
      <point x="475" y="460" type="line"/>
      <point x="475" y="0" type="line"/>
      <point x="441" y="0" type="line"/>
    </contour>
    <contour>
      <point x="41" y="230" type="curve" smooth="yes"/>
      <point x="41" y="378"/>
      <point x="138" y="470"/>
      <point x="260" y="470" type="curve" smooth="yes"/>
      <point x="380" y="470"/>
      <point x="456" y="360"/>
      <point x="456" y="230" type="curve" smooth="yes"/>
      <point x="456" y="100"/>
      <point x="380" y="-10"/>
      <point x="260" y="-10" type="curve" smooth="yes"/>
      <point x="138" y="-10"/>
      <point x="41" y="82"/>
    </contour>
    <contour>
      <point x="77" y="230" type="curve" smooth="yes"/>
      <point x="77" y="102"/>
      <point x="160" y="23"/>
      <point x="265" y="23" type="curve" smooth="yes"/>
      <point x="360" y="23"/>
      <point x="440" y="118"/>
      <point x="440" y="230" type="curve" smooth="yes"/>
      <point x="440" y="342"/>
      <point x="360" y="437"/>
      <point x="265" y="437" type="curve" smooth="yes"/>
      <point x="160" y="437"/>
      <point x="77" y="358"/>
    </contour>
    <contour>
      <point x="499" y="-157" type="curve"/>
      <point x="515" y="-180" type="line"/>
      <point x="500" y="-200"/>
      <point x="464" y="-220"/>
      <point x="421" y="-220" type="curve" smooth="yes"/>
      <point x="350" y="-220"/>
      <point x="311" y="-186"/>
      <point x="311" y="-133" type="curve"/>
      <point x="346" y="-126" type="line"/>
      <point x="346" y="-168"/>
      <point x="380" y="-188"/>
      <point x="423" y="-188" type="curve" smooth="yes"/>
      <point x="458" y="-188"/>
      <point x="485" y="-173"/>
    </contour>
    <contour>
      <point x="346" y="-126" type="curve"/>
      <point x="311" y="-133" type="line"/>
      <point x="311" y="-68"/>
      <point x="386" y="-21"/>
      <point x="456" y="15" type="curve"/>
      <point x="475" y="0" type="line"/>
      <point x="413" y="-28"/>
      <point x="346" y="-76"/>
    </contour>
  </outline>
</glyph>
